<svg xmlns="http://www.w3.org/2000/svg" width="772.383" height="546.423"><path fill="#fff" d="M151.803 361.618c145.792-59.94 301.681-30.926 452.059-68.134v10.001c-150.371 37.196-306.276 8.187-452.059 68.137v-10.004zm31.765-168.499c1.412-.51 2.119-.764 3.532-1.266v3.878c-2.229.79-3.378 2.903-3.532 5.128 0 42.025.008 84.049-.003 126.074.121 1.683.877 2.83 2.304 2.83.367 0 .775-.074 1.231-.235v3.8760000000000003c-1.413.502-2.119.753-3.532 1.266-11.193 4.071-16.791 6.325-27.986 11.383-1.515.686-2.266 1.027-3.779 1.73v-3.879c2.4-1.115 3.781-3.677 3.781-6.084 0-41.695-.002-83.392 0-125.088 0-1.816-.787-3.019-2.206-3.019-.461 0-.989.127-1.575.4v-3.877c1.514-.698 2.268-1.052 3.781-1.74 11.193-5.053 16.791-7.307 27.984-11.377zm-95.119 149.868v-234.751l-5.951-6.689 8.928-6.989-2.977-4.318v-74.023c-18.081 4.882-33.137 15.733-46.553 39.711-23.057 41.212 7.359 64.766 7.359 64.766-4.708 1.542-9.567 2.315-14.309 2.315-23.919 0-44.973-19.669-29.844-59.721 18.132-47.993 84.379-63.288 124.12-63.288s102.539 6.867 102.539 92.23c0 85.372-65.251 92.728-76.368 92.728h-29.014s-.14 167.185-.14 180.995c0 17.941 15.093 28.999 15.093 28.999v3.132c-14.174 0-33.504-22.463-42.891-32.131-9.39-9.676-15.943-10.396-15.943-10.396v-4.051c1.552 0 5.951-2.396 5.951-8.519zm37.93-177.546c5.117 3.329 9.782 4.812 14.004 4.812 21.517 0 31.521-38.486 31.521-66.732 0-33.855.488-91.252-39.287-91.252-2.113 0-4.187.009-6.238.026v153.146zm190.035 133.643v-125.082c0-2.271-1.223-4.031-3.387-4.031l-.389.017v-3.875c14.581-1.343 21.873-1.824 36.455-2.62v5.077c-.601.634-.904.957-1.504 1.596 0 0-1.342 8.863 2.679 15.504 3.172 5.243 13.815 32.566 17.953 53.592 7.959-23.35 15.909-46.7 23.887-70.046-.233-2.022-1.499-3.537-3.576-3.537l-.153.003v-3.885l3.78-.127c11.194-.375 16.796-.542 27.987-.911 1.41-.048 2.121-.079 3.533-.124v3.877c-2.23.079-3.376 1.805-3.533 3.979-.023 42.022-.023 84.049 0 126.073.154 2.115 1.254 3.747 3.391 3.747l.143-.003v3.879c-14.119.484-21.184.673-35.301 1.164v-3.8840000000000003c2.4-.076 3.78-2.073 3.78-4.48v-94.23c-9.948 30.18-19.9 60.354-29.823 90.542.108 1.64.945 2.896 2.58 2.896l.146-.005v2.9850000000000003c-1.088.048-1.635.078-2.727.13-3.662.167-5.492.256-9.158.444-1.163.06-1.746.093-2.909.158v-2.989c1.849-.102 2.909-1.656 2.909-3.509l.256-.965c-.541-7.062-2.394-21.079-8.715-30.039-8.73-12.379-16.422-36.552-16.422-47.158v85.379c.146 2.06 1.199 3.619 3.233 3.619l.295-.011v3.873c-7.681.535-11.51.842-19.187 1.541v-3.87c2.407-.22 3.777-2.289 3.777-4.694zm130.495-6.014v-125.078c0-2.354-1.319-4.201-3.617-4.201l-.167.005v-3.8739999999999997c1.511-.061 2.268-.099 3.784-.164 10.607-.449 15.919-.705 26.528-1.354l1.459-.087c1.414-.085 2.114-.137 3.529-.231 10.518-.687 15.779-1.086 26.297-2.082v11.228000000000002c-1.049.099-1.562.144-2.605.238-1.041.094-1.564.145-2.604.235 0-2.097-1.763-3.283-4.173-3.509-8.169.68-12.25.968-20.419 1.479l-.024.377c-.004 21.431-.004 32.144-.004 53.576 6.355-.4 9.541-.621 15.898-1.117 1.404-.364 2.428-1.241 2.428-2.468l1.525-.12 1.52-.13v13.143l-1.52.131-1.525.124c0-1.228-1.023-1.921-2.428-2.064-6.357.501-9.543.719-15.898 1.116 0 25.555 0 38.326.004 63.879l.02.363c8.17-.508 12.255-.797 20.424-1.478 2.41-.629 4.173-2.126 4.173-4.223l2.604-.239 2.605-.242v11.228c-24.641 2.343-36.959 2.925-61.598 3.931v-3.876c2.4-.098 3.784-2.106 3.784-4.516zm227.56-99.067s5.951 8.932 21.385 8.932c2.484 0 5.213-.231 8.205-.77 21.564-3.87 31.16-25.513 25.959-54.461-4.567-25.446-32.34-48.982-68.666-48.985-1.202 0-2.404.025-3.623.078.185 1.055.327 2.208.346 3.564v57.548l-2.46 4.652c2.947 1.01 4.433 1.5 7.378 2.437-1.965 3.125-2.951 4.682-4.918 7.775v73.999c0 3.938 2.203 5.011 3.785 5.011.451 0 .85-.086 1.133-.218v3.343s-5.414 3.172-13.165 14.426c-7.757 11.249-23.729 35.844-35.44 39.544v-2.584s12.475-13.288 12.475-28.114v-18.97l-.12.035c-.006-25.814-.006-51.635-.006-77.45.987-1.768 1.476-2.658 2.461-4.436-2.952-1.252-4.425-1.895-7.378-3.212 1.967-2.874 2.953-4.316 4.917-7.224l.006-53.69-.046.01c0-5.619-1.801-8.388-4.451-8.82-32.896 11.428-62.011 31.328-103.029 38.696-6.525 1.172-12.332 1.696-17.486 1.696-34.751 0-40.078-23.778-39.702-33.031 0 0 10.487 8.236 37.687 8.236 8.65 0 18.986-.833 31.217-3.027 50.682-9.099 71.752-24.602 108.648-31.223 6.784-1.219 15.121-1.962 24.281-1.962 40.65-.001 97.521 14.646 107.002 67.454 9.766 54.407-30.043 68.007-45.934 68.007-3.008 0-5.158-.487-5.953-1.277 0 0-4.727 1.493-11.189 1.493-10.972 0-26.946-4.297-33.319-27.482zm-74.139-47.156v126.067c.13 1.769.943 3.022 2.5 3.022.313 0 .657-.051 1.031-.158v3.878c-1.412.403-2.113.604-3.531.997-4.75 1.323-7.13 1.948-11.879 3.134-1.516.373-2.271.56-3.787.927v-3.878c2.406-.578 3.787-2.876 3.787-5.283v-5.863c-3.033-7.115-9.762-18.589-23.674-28.019-14.543-9.853-21.727-25.948-24.946-35.6v79.479c.13 1.961 1.077 3.404 2.922 3.404.192 0 .397-.014.61-.048v3.878c-1.416.22-2.117.324-3.532.53-4.755.708-7.128 1.038-11.881 1.645-1.511.197-2.268.293-3.78.474v-3.873c2.405-.295 3.78-2.42 3.78-4.829v-125.088c0-2.23-1.182-3.911-3.271-3.911-.164 0-.336.01-.51.031v-3.874c12.893-1.579 19.34-2.52 32.23-4.828v3.884c-4.076 5.367-1.143 18.914 14.037 33.881 8.713 8.585 14.586 17.754 18.014 24.068v-60.426c0-2.072-1.023-3.548-2.848-3.548-.291 0-.605.038-.939.118v-3.872c1.517-.365 2.271-.553 3.787-.925 4.749-1.188 7.129-1.811 11.879-3.137 1.418-.397 2.119-.599 3.531-1.005v3.8840000000000003c-2.233.64-3.374 2.648-3.53 4.864zm-337.107 31.53c-.452 0-.877.048-1.264.146-23.209 5.955-20.535 49.719-20.199 69.186.588 33.973-.338 60.501 11.028 60.501.491 0 1.009-.048 1.548-.149 1.896-.354 3.509-1.225 4.879-2.556l1.656-2.329v-65.564c0-2.152-1.102-3.754-3.055-3.754-.229 0-.471.022-.722.067l.005-1.937v-1.941c1.512-.276 2.257-.41 3.771-.67 11.191-1.956 16.797-2.771 27.988-4.17 1.414-.174 2.121-.268 3.533-.436v3.886c-2.234.266-3.381 2.094-3.533 4.285v49.848c0 11.772 1.732 11.87 1.732 11.87-8.769 14.601-22.467 19.971-36.256 23.146-3.492.801-6.744 1.177-9.781 1.177-29.838 0-38.287-36.417-38.015-62.688.366-35.841 14.817-78.95 55.419-85.886 2.003-.341 3.901-.486 5.681-.486.848 0 1.669.033 2.46.094 8.243.624 13.352 4.184 13.352 4.184-2.968 6.135-4.454 9.201-7.418 15.371-.479-6.179-8.158-11.195-12.809-11.195z"/><path fill="#fff" d="M391.931 96.396s-5.301 5.656-13.495 13.865c.059.221.048.43-.107.582l-6.27 6.264c-.099.099-.221.127-.357.127l-.07-.003-3.049 3.049 18.301 18.303c.371.368.371.962 0 1.323-.409.41-.409 1.084 0 1.493.207.206.478.308.747.308.271 0 .54-.102.745-.308.41-.409.41-1.083 0-1.493l-.348-.228c-.48-.196-.712-.741-.518-1.218.15-.367.502-.59.873-.59.115 0 .234.022.348.067.365.146.691.365.971.645 1.14 1.141 1.14 3.002 0 4.142-.569.571-1.32.857-2.07.857s-1.5-.286-2.071-.857c-.908-.909-1.096-2.275-.553-3.371l-17.749-17.747-17.749 17.747c.538 1.096.356 2.462-.554 3.371-.57.571-1.32.857-2.07.857s-1.501-.286-2.07-.857c-1.143-1.14-1.143-3.001 0-4.142.276-.279.604-.498.97-.645.113-.045.231-.067.347-.067.37 0 .724.223.872.59.194.477-.036 1.021-.517 1.218-.131.054-.245.131-.35.228-.408.41-.408 1.084 0 1.493.206.206.476.308.746.308s.54-.102.748-.308c.408-.409.408-1.083 0-1.493-.365-.361-.365-.955 0-1.323l18.299-18.303-3.049-3.049-.071.003c-.136 0-.259-.026-.356-.127l-6.266-6.264c-.151-.152-.168-.361-.104-.585-8.198-8.206-13.5-13.862-13.5-13.862s2.512 2.356 6.604 6.342c-3.982-4.09-6.341-6.602-6.341-6.602s2.512 2.354 6.609 6.345c-3.986-4.095-6.346-6.608-6.346-6.608s2.511 2.353 6.6 6.335c-3.98-4.09-6.338-6.6-6.338-6.6s5.66 5.299 13.861 13.498l.229-.035c.135 0 .258.042.354.14l6.27 6.264c.112.121.134.271.12.432l3.049 3.049 3.05-3.049c-.014-.161.007-.311.12-.432l6.27-6.264c.1-.098.223-.14.357-.14l.225.035c8.206-8.199 13.862-13.498 13.862-13.498s-2.354 2.506-6.327 6.591c4.084-3.977 6.59-6.326 6.59-6.326s-2.346 2.5-6.318 6.577c4.078-3.966 6.582-6.313 6.582-6.313s-2.344 2.499-6.314 6.576c4.077-3.972 6.578-6.317 6.578-6.317z"/><path fill="#212121" d="M1074.763 361.618c145.792-59.94 301.681-30.926 452.059-68.134v10.001c-150.371 37.196-306.276 8.187-452.059 68.137v-10.004zm31.765-168.499c1.412-.51 2.119-.764 3.532-1.266v3.878c-2.229.79-3.378 2.903-3.532 5.128 0 42.025.008 84.049-.003 126.074.121 1.683.877 2.83 2.304 2.83.367 0 .775-.074 1.231-.235v3.8760000000000003c-1.413.502-2.119.753-3.532 1.266-11.193 4.071-16.791 6.325-27.986 11.383-1.515.686-2.266 1.027-3.779 1.73v-3.879c2.4-1.115 3.781-3.677 3.781-6.084 0-41.695-.002-83.392 0-125.088 0-1.816-.787-3.019-2.206-3.019-.461 0-.989.127-1.575.4v-3.877c1.514-.698 2.268-1.052 3.781-1.74 11.193-5.053 16.791-7.307 27.984-11.377zm-95.119 149.868v-234.751l-5.951-6.689 8.928-6.989-2.977-4.318v-74.023c-18.081 4.882-33.137 15.733-46.553 39.711-23.057 41.212 7.359 64.766 7.359 64.766-4.708 1.542-9.567 2.315-14.309 2.315-23.919 0-44.973-19.669-29.844-59.721 18.132-47.993 84.379-63.288 124.12-63.288s102.539 6.867 102.539 92.23c0 85.372-65.251 92.728-76.368 92.728h-29.014s-.14 167.185-.14 180.995c0 17.941 15.093 28.999 15.093 28.999v3.132c-14.174 0-33.504-22.463-42.891-32.131-9.39-9.676-15.943-10.396-15.943-10.396v-4.051c1.552 0 5.951-2.396 5.951-8.519zm37.93-177.546c5.117 3.329 9.782 4.812 14.004 4.812 21.517 0 31.521-38.486 31.521-66.732 0-33.855.488-91.252-39.287-91.252-2.113 0-4.187.009-6.238.026v153.146zm190.035 133.643v-125.082c0-2.271-1.223-4.031-3.387-4.031l-.389.017v-3.875c14.581-1.343 21.873-1.824 36.455-2.62v5.077c-.601.634-.904.957-1.504 1.596 0 0-1.342 8.863 2.679 15.504 3.172 5.243 13.815 32.566 17.953 53.592 7.959-23.35 15.909-46.7 23.887-70.046-.233-2.022-1.499-3.537-3.576-3.537l-.153.003v-3.885l3.78-.127c11.194-.375 16.796-.542 27.987-.911 1.41-.048 2.121-.079 3.533-.124v3.877c-2.23.079-3.376 1.805-3.533 3.979-.023 42.022-.023 84.049 0 126.073.154 2.115 1.254 3.747 3.391 3.747l.143-.003v3.879c-14.119.484-21.184.673-35.301 1.164v-3.8840000000000003c2.4-.076 3.78-2.073 3.78-4.48v-94.23c-9.948 30.18-19.9 60.354-29.823 90.542.108 1.64.945 2.896 2.58 2.896l.146-.005v2.9850000000000003c-1.088.048-1.635.078-2.727.13-3.662.167-5.492.256-9.158.444-1.163.06-1.746.093-2.909.158v-2.989c1.849-.102 2.909-1.656 2.909-3.509l.256-.965c-.541-7.062-2.394-21.079-8.715-30.039-8.73-12.379-16.422-36.552-16.422-47.158v85.379c.146 2.06 1.199 3.619 3.233 3.619l.295-.011v3.873c-7.681.535-11.51.842-19.187 1.541v-3.87c2.407-.22 3.777-2.289 3.777-4.694zm130.495-6.014v-125.078c0-2.354-1.319-4.201-3.617-4.201l-.167.005v-3.8739999999999997c1.511-.061 2.268-.099 3.784-.164 10.607-.449 15.919-.705 26.528-1.354l1.459-.087c1.414-.085 2.114-.137 3.529-.231 10.518-.687 15.779-1.086 26.297-2.082v11.228000000000002c-1.049.099-1.562.144-2.605.238-1.041.094-1.564.145-2.604.235 0-2.097-1.763-3.283-4.173-3.509-8.169.68-12.25.968-20.419 1.479l-.024.377c-.004 21.431-.004 32.144-.004 53.576 6.355-.4 9.541-.621 15.898-1.117 1.404-.364 2.428-1.241 2.428-2.468l1.525-.12 1.52-.13v13.143l-1.52.131-1.525.124c0-1.228-1.023-1.921-2.428-2.064-6.357.501-9.543.719-15.898 1.116 0 25.555 0 38.326.004 63.879l.02.363c8.17-.508 12.255-.797 20.424-1.478 2.41-.629 4.173-2.126 4.173-4.223l2.604-.239 2.605-.242v11.228c-24.641 2.343-36.959 2.925-61.598 3.931v-3.876c2.4-.098 3.784-2.106 3.784-4.516zm227.56-99.067s5.951 8.932 21.385 8.932c2.484 0 5.213-.231 8.205-.77 21.564-3.87 31.16-25.513 25.959-54.461-4.567-25.446-32.34-48.982-68.666-48.985-1.202 0-2.404.025-3.623.078.185 1.055.327 2.208.346 3.564v57.548l-2.46 4.652c2.947 1.01 4.433 1.5 7.378 2.437-1.965 3.125-2.951 4.682-4.918 7.775v73.999c0 3.938 2.203 5.011 3.785 5.011.451 0 .85-.086 1.133-.218v3.343s-5.414 3.172-13.165 14.426c-7.757 11.249-23.729 35.844-35.44 39.544v-2.584s12.475-13.288 12.475-28.114v-18.97l-.12.035c-.006-25.814-.006-51.635-.006-77.45.987-1.768 1.476-2.658 2.461-4.436-2.952-1.252-4.425-1.895-7.378-3.212 1.967-2.874 2.953-4.316 4.917-7.224l.006-53.69-.046.01c0-5.619-1.801-8.388-4.451-8.82-32.896 11.428-62.011 31.328-103.029 38.696-6.525 1.172-12.332 1.696-17.486 1.696-34.751 0-40.078-23.778-39.702-33.031 0 0 10.487 8.236 37.687 8.236 8.65 0 18.986-.833 31.217-3.027 50.682-9.099 71.752-24.602 108.648-31.223 6.784-1.219 15.121-1.962 24.281-1.962 40.65-.001 97.521 14.646 107.002 67.454 9.766 54.407-30.043 68.007-45.934 68.007-3.008 0-5.158-.487-5.953-1.277 0 0-4.727 1.493-11.189 1.493-10.972 0-26.946-4.297-33.319-27.482zm-74.139-47.156v126.067c.13 1.769.943 3.022 2.5 3.022.313 0 .657-.051 1.031-.158v3.878c-1.412.403-2.113.604-3.531.997-4.75 1.323-7.13 1.948-11.879 3.134-1.516.373-2.271.56-3.787.927v-3.878c2.406-.578 3.787-2.876 3.787-5.283v-5.863c-3.033-7.115-9.762-18.589-23.674-28.019-14.543-9.853-21.727-25.948-24.946-35.6v79.479c.13 1.961 1.077 3.404 2.922 3.404.192 0 .397-.014.61-.048v3.878c-1.416.22-2.117.324-3.532.53-4.755.708-7.128 1.038-11.881 1.645-1.511.197-2.268.293-3.78.474v-3.873c2.405-.295 3.78-2.42 3.78-4.829v-125.088c0-2.23-1.182-3.911-3.271-3.911-.164 0-.336.01-.51.031v-3.874c12.893-1.579 19.34-2.52 32.23-4.828v3.884c-4.076 5.367-1.143 18.914 14.037 33.881 8.713 8.585 14.586 17.754 18.014 24.068v-60.426c0-2.072-1.023-3.548-2.848-3.548-.291 0-.605.038-.939.118v-3.872c1.517-.365 2.271-.553 3.787-.925 4.749-1.188 7.129-1.811 11.879-3.137 1.418-.397 2.119-.599 3.531-1.005v3.8840000000000003c-2.233.64-3.374 2.648-3.53 4.864zm-337.107 31.53c-.452 0-.877.048-1.264.146-23.209 5.955-20.535 49.719-20.199 69.186.588 33.973-.338 60.501 11.028 60.501.491 0 1.009-.048 1.548-.149 1.896-.354 3.509-1.225 4.879-2.556l1.656-2.329v-65.564c0-2.152-1.102-3.754-3.055-3.754-.229 0-.471.022-.722.067l.005-1.937v-1.941c1.512-.276 2.257-.41 3.771-.67 11.191-1.956 16.797-2.771 27.988-4.17 1.414-.174 2.121-.268 3.533-.436v3.886c-2.234.266-3.381 2.094-3.533 4.285v49.848c0 11.772 1.732 11.87 1.732 11.87-8.769 14.601-22.467 19.971-36.256 23.146-3.492.801-6.744 1.177-9.781 1.177-29.838 0-38.287-36.417-38.015-62.688.366-35.841 14.817-78.95 55.419-85.886 2.003-.341 3.901-.486 5.681-.486.848 0 1.669.033 2.46.094 8.243.624 13.352 4.184 13.352 4.184-2.968 6.135-4.454 9.201-7.418 15.371-.479-6.179-8.158-11.195-12.809-11.195zm209.031 187.57c-1.895.191-2.847.289-4.745.478v10.783c1.898-.228 2.851-.34 4.745-.565v-10.696zm-209.316 20.697c-1.619.273-2.431.411-4.054.696v15.975c1.623-.312 2.435-.476 4.054-.781v-15.89zm173.591-17.305c-.996 8.68-1.501 13.034-2.496 21.777 1.994-.233 2.989-.353 4.98-.589-.995-8.441-1.49-12.68-2.484-21.188zm-31.5 2.514c-1.618.119-2.426.182-4.047.306v13.199c1.621-.152 2.429-.234 4.047-.39v-13.115zm-317.691 109.514l-74.002 4.408s32.242-39.233 110.199-74.564c18.162-8.232 38.807-16.253 62.104-23.516 25.026-7.804 53.101-14.728 84.46-20.106 27.966-4.797 58.539-8.362 91.857-10.214 275.528-15.307 305.174-49.882 333.227-67.083l-2.574 47.19s-22.537 20.402-85.273 41.774c-43.056 14.67-105.051 29.8-191.672 39.099-58.015 6.23-106.001 14.291-145.564 23.894-105.582 25.629-151.154 62.22-167.043 104.174l-15.719-65.056zm495.556-108.723c0 1.015.937 1.627 2.223 1.627.467 0 .981-.082 1.515-.254 3.394-1.089 5.087-1.658 8.478-2.833 2.047-.715 3.737-2.452 3.737-3.789v-12.015c0-.985-.866-1.595-2.159-1.595-.475 0-1.008.083-1.578.258-2.645.826-3.968 1.227-6.61 1.997v-8.729c1.896-.519 2.843-.786 4.739-1.328v4.909c2.244-.672 3.365-1.012 5.608-1.715v-6.164c0-1.044-.867-1.624-2.163-1.624-.475 0-1.007.078-1.574.239-3.391.972-5.084 1.426-8.478 2.312-2.228.581-3.737 2.038-3.737 3.556v11.476c0 .985.91 1.696 2.302 1.696.436 0 .919-.07 1.436-.223 2.646-.778 3.964-1.182 6.606-2.008v9.572c-1.896.629-2.844.941-4.739 1.545v-5.177c-2.242.695-3.36 1.025-5.604 1.682-.002 2.636-.002 3.953-.002 6.585zm-32.494 8.638c0 1.192 1.139 1.967 2.627 1.967.355 0 .73-.044 1.115-.137 3.387-.817 5.076-1.246 8.463-2.124 2.056-.538 3.736-2.199 3.736-3.632v-6.806c-2.24.561-3.369.838-5.605 1.373v5.478c-1.895.474-2.836.699-4.729 1.153v-23.729c1.893-.368 2.834-.553 4.729-.938v5.424c2.236-.479 3.365-.733 5.605-1.238v-6.708c0-1.194-1.122-2.026-2.723-2.026-.32 0-.66.034-1.014.104-3.387.671-5.076.992-8.463 1.604-1.994.361-3.742 1.96-3.742 3.437.001 10.722.001 16.079.001 26.798zm-23.023 7.663c2.243-.439 3.364-.66 5.602-1.12v-33.362c-2.237.322-3.358.476-5.602.776v33.706zm-33.348 5.889c2.24-.367 3.359-.545 5.596-.917v-14.517c1.895-.266 2.836-.4 4.727-.672v14.398c2.238-.379 3.363-.57 5.6-.963v-34.776c-2.236.254-3.361.378-5.6.618v16.205c-1.891.263-2.832.39-4.727.641v-16.337c-2.236.231-3.355.345-5.596.568v35.752zm-32.114 5.015l5.594-.866v-16.975c2.64-.334 3.972-.494 6.614-.832 2.049-.261 3.723-1.896 3.723-3.574v-13.796c0-1.569-1.413-2.83-3.318-2.83l-.404.02-12.208 1.134v20.583c-.001 6.853-.001 10.28-.001 17.136zm-34.981 5.015c2.244-.301 3.369-.457 5.61-.767.35-3.137.521-4.705.868-7.843 2.492-.31 3.74-.465 6.232-.784l.862 7.52c2.188-.308 3.287-.46 5.479-.775-1.79-15.216-2.688-22.888-4.479-38.327-3.982.317-5.973.474-9.959.774-1.844 15.971-2.764 24.009-4.613 40.202zm-31.555 4.129l5.604-.724v-17.585c1.893-.191 2.838-.293 4.73-.487v17.459l5.601-.724.006-16.793c0-1.457-2.61-3.138-2.614-3.181 0 0 1.929-1.596 1.929-3.054v-14.237c0-1.782-1.48-3.265-3.462-3.265l-.275.01c-4.607.314-6.909.474-11.518.781-.001 16.72-.001 25.084-.001 41.8zm-33.365.661c0 1.842 1.475 3.227 3.266 3.227.154 0 .311-.008.469-.031 3.389-.448 5.08-.68 8.471-1.125 2.051-.268 3.73-2.135 3.73-4.092v-17.264c-2.99.299-4.477.455-7.46.759v5.558l1.856-.202v9.939c-1.891.231-2.832.353-4.727.589v-32.307c1.895-.152 2.836-.225 4.727-.371v7.399c2.241-.199 3.361-.298 5.604-.494v-9.171c0-1.876-1.475-3.432-3.455-3.432l-.275.01c-3.391.237-5.082.353-8.471.597-1.995.143-3.734 2.023-3.734 4.03-.001 14.555-.001 21.831-.001 36.381zm-34.975 8.679c2.239-.342 3.365-.511 5.598-.844.354-3.63.527-5.429.878-9.049 2.49-.34 3.733-.508 6.224-.836l.869 8.712c2.189-.316 3.286-.466 5.478-.773-1.796-17.675-2.694-26.565-4.485-44.455-3.982.328-5.975.495-9.962.851-1.838 18.443-2.76 27.717-4.6 46.394zm-40.705 6.963c2.317-.445 3.474-.662 5.787-1.094v-25.981c1.693 6.014 2.539 8.991 4.232 14.937 1.816-.302 2.73-.442 4.545-.738 1.84-6.498 2.769-9.727 4.609-16.136v25.538c2.242-.386 3.358-.572 5.604-.941v-46.965c-2.246.237-3.362.355-5.604.606-2.762 9.764-4.143 14.685-6.906 24.639-2.664-9.15-4.004-13.756-6.668-23.051-2.238.276-3.359.413-5.6.708.001 19.392.001 29.088.001 48.478zm-33.053 7.046c2.242-.53 3.361-.79 5.604-1.301v-21.282c1.893-.384 2.838-.568 4.73-.938v21.152c2.242-.494 3.367-.736 5.609-1.21v-20.377c0-1.771-2.604-3.633-2.611-3.695 0 0 1.92-2.049 1.92-3.818v-17.271c0-2.076-1.359-3.718-3.213-3.718-.17 0-.343.015-.521.043-4.608.729-6.91 1.111-11.519 1.919.001 20.197.001 30.297.001 50.496zm-31.236 8.195c5.777-1.672 8.66-2.468 14.438-3.99v-6.625c-3.536.905-5.302 1.367-8.842 2.329v-17.63c2.366-.592 3.55-.88 5.913-1.446v-6.659c-2.363.55-3.547.83-5.913 1.407v-14.35c3.364-.759 5.04-1.123 8.405-1.833v-6.637c-5.607 1.143-8.4 1.738-14.002 3.021.001 20.968.001 31.447.001 52.413zm-33.366 10.785c4.878-1.748 7.315-2.592 12.195-4.208 2.054-.686 3.731-3.3 3.731-5.742v-44.38c0-2.123-1.219-3.705-2.928-3.705-.258 0-.525.035-.804.111-4.88 1.319-7.317 2.02-12.195 3.467.001 21.783.001 32.67.001 54.457zm5.604-8.934c1.889-.641 2.828-.953 4.724-1.574v-39.978c-1.896.534-2.835.806-4.724 1.361v40.191zm142.335-65.037c-.991 10.023-1.496 15.058-2.489 25.148 1.992-.249 2.994-.38 4.988-.632-1-9.777-1.499-14.674-2.499-24.516z"/><path fill="#212121" d="M1314.891 96.396s-5.301 5.656-13.495 13.865c.059.221.048.43-.107.582l-6.27 6.264c-.099.099-.221.127-.357.127l-.07-.003-3.049 3.049 18.301 18.303c.371.368.371.962 0 1.323-.409.41-.409 1.084 0 1.493.207.206.478.308.747.308.271 0 .54-.102.745-.308.41-.409.41-1.083 0-1.493l-.348-.228c-.48-.196-.712-.741-.518-1.218.15-.367.502-.59.873-.59.115 0 .234.022.348.067.365.146.691.365.971.645 1.14 1.141 1.14 3.002 0 4.142-.569.571-1.32.857-2.07.857s-1.5-.286-2.071-.857c-.908-.909-1.096-2.275-.553-3.371l-17.749-17.747-17.749 17.747c.538 1.096.356 2.462-.554 3.371-.57.571-1.32.857-2.07.857s-1.501-.286-2.07-.857c-1.143-1.14-1.143-3.001 0-4.142.276-.279.604-.498.97-.645.113-.045.231-.067.347-.067.37 0 .724.223.872.59.194.477-.036 1.021-.517 1.218-.131.054-.245.131-.35.228-.408.41-.408 1.084 0 1.493.206.206.476.308.746.308s.54-.102.748-.308c.408-.409.408-1.083 0-1.493-.365-.361-.365-.955 0-1.323l18.299-18.303-3.049-3.049-.071.003c-.136 0-.259-.026-.356-.127l-6.266-6.264c-.151-.152-.168-.361-.104-.585-8.198-8.206-13.5-13.862-13.5-13.862s2.512 2.356 6.604 6.342c-3.982-4.09-6.341-6.602-6.341-6.602s2.512 2.354 6.609 6.345c-3.986-4.095-6.346-6.608-6.346-6.608s2.511 2.353 6.6 6.335c-3.98-4.09-6.338-6.6-6.338-6.6s5.66 5.299 13.861 13.498l.229-.035c.135 0 .258.042.354.14l6.27 6.264c.112.121.134.271.12.432l3.049 3.049 3.05-3.049c-.014-.161.007-.311.12-.432l6.27-6.264c.1-.098.223-.14.357-.14l.225.035c8.206-8.199 13.862-13.498 13.862-13.498s-2.354 2.506-6.327 6.591c4.084-3.977 6.59-6.326 6.59-6.326s-2.346 2.5-6.318 6.577c4.078-3.966 6.582-6.313 6.582-6.313s-2.344 2.499-6.314 6.576c4.077-3.972 6.578-6.317 6.578-6.317z"/><path fill="#212121" d="M1980.763 361.618c145.792-59.94 301.681-30.926 452.059-68.134v10.001c-150.371 37.196-306.276 8.187-452.059 68.137v-10.004zm31.765-168.499c1.412-.51 2.119-.764 3.532-1.266v3.878c-2.229.79-3.378 2.903-3.532 5.128 0 42.025.008 84.049-.003 126.074.121 1.683.877 2.83 2.304 2.83.367 0 .775-.074 1.231-.235v3.8760000000000003c-1.413.502-2.119.753-3.532 1.266-11.193 4.071-16.791 6.325-27.986 11.383-1.515.686-2.266 1.027-3.779 1.73v-3.879c2.4-1.115 3.781-3.677 3.781-6.084 0-41.695-.002-83.392 0-125.088 0-1.816-.787-3.019-2.206-3.019-.461 0-.989.127-1.575.4v-3.877c1.514-.698 2.268-1.052 3.781-1.74 11.193-5.053 16.791-7.307 27.984-11.377zm-95.119 149.868v-234.751l-5.951-6.689 8.928-6.989-2.977-4.318v-74.023c-18.081 4.882-33.137 15.733-46.553 39.711-23.057 41.212 7.359 64.766 7.359 64.766-4.708 1.542-9.567 2.315-14.309 2.315-23.919 0-44.973-19.669-29.844-59.721 18.132-47.993 84.379-63.288 124.12-63.288s102.539 6.867 102.539 92.23c0 85.372-65.251 92.728-76.368 92.728h-29.014s-.14 167.185-.14 180.995c0 17.941 15.093 28.999 15.093 28.999v3.132c-14.174 0-33.504-22.463-42.891-32.131-9.39-9.676-15.943-10.396-15.943-10.396v-4.051c1.552 0 5.951-2.396 5.951-8.519zm37.93-177.546c5.117 3.329 9.782 4.812 14.004 4.812 21.517 0 31.521-38.486 31.521-66.732 0-33.855.488-91.252-39.287-91.252-2.113 0-4.187.009-6.238.026v153.146zm190.035 133.643v-125.082c0-2.271-1.223-4.031-3.387-4.031l-.389.017v-3.875c14.581-1.343 21.873-1.824 36.455-2.62v5.077c-.601.634-.904.957-1.504 1.596 0 0-1.342 8.863 2.679 15.504 3.172 5.243 13.815 32.566 17.953 53.592 7.959-23.35 15.909-46.7 23.887-70.046-.233-2.022-1.499-3.537-3.576-3.537l-.153.003v-3.885l3.78-.127c11.194-.375 16.796-.542 27.987-.911 1.41-.048 2.121-.079 3.533-.124v3.877c-2.23.079-3.376 1.805-3.533 3.979-.023 42.022-.023 84.049 0 126.073.154 2.115 1.254 3.747 3.391 3.747l.143-.003v3.879c-14.119.484-21.184.673-35.301 1.164v-3.8840000000000003c2.4-.076 3.78-2.073 3.78-4.48v-94.23c-9.948 30.18-19.9 60.354-29.823 90.542.108 1.64.945 2.896 2.58 2.896l.146-.005v2.9850000000000003c-1.088.048-1.635.078-2.727.13-3.662.167-5.492.256-9.158.444-1.163.06-1.746.093-2.909.158v-2.989c1.849-.102 2.909-1.656 2.909-3.509l.256-.965c-.541-7.062-2.394-21.079-8.715-30.039-8.73-12.379-16.422-36.552-16.422-47.158v85.379c.146 2.06 1.199 3.619 3.233 3.619l.295-.011v3.873c-7.681.535-11.51.842-19.187 1.541v-3.87c2.407-.22 3.777-2.289 3.777-4.694zm130.495-6.014v-125.078c0-2.354-1.319-4.201-3.617-4.201l-.167.005v-3.8739999999999997c1.511-.061 2.268-.099 3.784-.164 10.607-.449 15.919-.705 26.528-1.354l1.459-.087c1.414-.085 2.114-.137 3.529-.231 10.518-.687 15.779-1.086 26.297-2.082v11.228000000000002c-1.049.099-1.562.144-2.605.238-1.041.094-1.564.145-2.604.235 0-2.097-1.763-3.283-4.173-3.509-8.169.68-12.25.968-20.419 1.479l-.024.377c-.004 21.431-.004 32.144-.004 53.576 6.355-.4 9.541-.621 15.898-1.117 1.404-.364 2.428-1.241 2.428-2.468l1.525-.12 1.52-.13v13.143l-1.52.131-1.525.124c0-1.228-1.023-1.921-2.428-2.064-6.357.501-9.543.719-15.898 1.116 0 25.555 0 38.326.004 63.879l.02.363c8.17-.508 12.255-.797 20.424-1.478 2.41-.629 4.173-2.126 4.173-4.223l2.604-.239 2.605-.242v11.228c-24.641 2.343-36.959 2.925-61.598 3.931v-3.876c2.4-.098 3.784-2.106 3.784-4.516zm227.56-99.067s5.951 8.932 21.385 8.932c2.484 0 5.213-.231 8.205-.77 21.564-3.87 31.16-25.513 25.959-54.461-4.567-25.446-32.34-48.982-68.666-48.985-1.202 0-2.404.025-3.623.078.185 1.055.327 2.208.346 3.564v57.548l-2.46 4.652c2.947 1.01 4.433 1.5 7.378 2.437-1.965 3.125-2.951 4.682-4.918 7.775v73.999c0 3.938 2.203 5.011 3.785 5.011.451 0 .85-.086 1.133-.218v3.343s-5.414 3.172-13.165 14.426c-7.757 11.249-23.729 35.844-35.44 39.544v-2.584s12.475-13.288 12.475-28.114v-18.97l-.12.035c-.006-25.814-.006-51.635-.006-77.45.987-1.768 1.476-2.658 2.461-4.436-2.952-1.252-4.425-1.895-7.378-3.212 1.967-2.874 2.953-4.316 4.917-7.224l.006-53.69-.046.01c0-5.619-1.801-8.388-4.451-8.82-32.896 11.428-62.011 31.328-103.029 38.696-6.525 1.172-12.332 1.696-17.486 1.696-34.751 0-40.078-23.778-39.702-33.031 0 0 10.487 8.236 37.687 8.236 8.65 0 18.986-.833 31.217-3.027 50.682-9.099 71.752-24.602 108.648-31.223 6.784-1.219 15.121-1.962 24.281-1.962 40.65-.001 97.521 14.646 107.002 67.454 9.766 54.407-30.043 68.007-45.934 68.007-3.008 0-5.158-.487-5.953-1.277 0 0-4.727 1.493-11.189 1.493-10.972 0-26.946-4.297-33.319-27.482zm-74.139-47.156v126.067c.13 1.769.943 3.022 2.5 3.022.313 0 .657-.051 1.031-.158v3.878c-1.412.403-2.113.604-3.531.997-4.75 1.323-7.13 1.948-11.879 3.134-1.516.373-2.271.56-3.787.927v-3.878c2.406-.578 3.787-2.876 3.787-5.283v-5.863c-3.033-7.115-9.762-18.589-23.674-28.019-14.543-9.853-21.727-25.948-24.946-35.6v79.479c.13 1.961 1.077 3.404 2.922 3.404.192 0 .397-.014.61-.048v3.878c-1.416.22-2.117.324-3.532.53-4.755.708-7.128 1.038-11.881 1.645-1.511.197-2.268.293-3.78.474v-3.873c2.405-.295 3.78-2.42 3.78-4.829v-125.088c0-2.23-1.182-3.911-3.271-3.911-.164 0-.336.01-.51.031v-3.874c12.893-1.579 19.34-2.52 32.23-4.828v3.884c-4.076 5.367-1.143 18.914 14.037 33.881 8.713 8.585 14.586 17.754 18.014 24.068v-60.426c0-2.072-1.023-3.548-2.848-3.548-.291 0-.605.038-.939.118v-3.872c1.517-.365 2.271-.553 3.787-.925 4.749-1.188 7.129-1.811 11.879-3.137 1.418-.397 2.119-.599 3.531-1.005v3.8840000000000003c-2.233.64-3.374 2.648-3.53 4.864zm-337.107 31.53c-.452 0-.877.048-1.264.146-23.209 5.955-20.535 49.719-20.199 69.186.588 33.973-.338 60.501 11.028 60.501.491 0 1.009-.048 1.548-.149 1.896-.354 3.509-1.225 4.879-2.556l1.656-2.329v-65.564c0-2.152-1.102-3.754-3.055-3.754-.229 0-.471.022-.722.067l.005-1.937v-1.941c1.512-.276 2.257-.41 3.771-.67 11.191-1.956 16.797-2.771 27.988-4.17 1.414-.174 2.121-.268 3.533-.436v3.886c-2.234.266-3.381 2.094-3.533 4.285v49.848c0 11.772 1.732 11.87 1.732 11.87-8.769 14.601-22.467 19.971-36.256 23.146-3.492.801-6.744 1.177-9.781 1.177-29.838 0-38.287-36.417-38.015-62.688.366-35.841 14.817-78.95 55.419-85.886 2.003-.341 3.901-.486 5.681-.486.848 0 1.669.033 2.46.094 8.243.624 13.352 4.184 13.352 4.184-2.968 6.135-4.454 9.201-7.418 15.371-.479-6.179-8.158-11.195-12.809-11.195z"/><path fill="#212121" d="M2220.891 96.396s-5.301 5.656-13.495 13.865c.059.221.048.43-.107.582l-6.27 6.264c-.099.099-.221.127-.357.127l-.07-.003-3.049 3.049 18.301 18.303c.371.368.371.962 0 1.323-.409.41-.409 1.084 0 1.493.207.206.478.308.747.308.271 0 .54-.102.745-.308.41-.409.41-1.083 0-1.493l-.348-.228c-.48-.196-.712-.741-.518-1.218.15-.367.502-.59.873-.59.115 0 .234.022.348.067.365.146.691.365.971.645 1.14 1.141 1.14 3.002 0 4.142-.569.571-1.32.857-2.07.857s-1.5-.286-2.071-.857c-.908-.909-1.096-2.275-.553-3.371l-17.749-17.747-17.749 17.747c.538 1.096.356 2.462-.554 3.371-.57.571-1.32.857-2.07.857s-1.501-.286-2.07-.857c-1.143-1.14-1.143-3.001 0-4.142.276-.279.604-.498.97-.645.113-.045.231-.067.347-.067.37 0 .724.223.872.59.194.477-.036 1.021-.517 1.218-.131.054-.245.131-.35.228-.408.41-.408 1.084 0 1.493.206.206.476.308.746.308s.54-.102.748-.308c.408-.409.408-1.083 0-1.493-.365-.361-.365-.955 0-1.323l18.299-18.303-3.049-3.049-.071.003c-.136 0-.259-.026-.356-.127l-6.266-6.264c-.151-.152-.168-.361-.104-.585-8.198-8.206-13.5-13.862-13.5-13.862s2.512 2.356 6.604 6.342c-3.982-4.09-6.341-6.602-6.341-6.602s2.512 2.354 6.609 6.345c-3.986-4.095-6.346-6.608-6.346-6.608s2.511 2.353 6.6 6.335c-3.98-4.09-6.338-6.6-6.338-6.6s5.66 5.299 13.861 13.498l.229-.035c.135 0 .258.042.354.14l6.27 6.264c.112.121.134.271.12.432l3.049 3.049 3.05-3.049c-.014-.161.007-.311.12-.432l6.27-6.264c.1-.098.223-.14.357-.14l.225.035c8.206-8.199 13.862-13.498 13.862-13.498s-2.354 2.506-6.327 6.591c4.084-3.977 6.59-6.326 6.59-6.326s-2.346 2.5-6.318 6.577c4.078-3.966 6.582-6.313 6.582-6.313s-2.344 2.499-6.314 6.576c4.077-3.972 6.578-6.317 6.578-6.317z"/></svg>