<?xml version="1.0" encoding="utf-8"?>
<!-- Generator: Adobe Illustrator 16.0.0, SVG Export Plug-In . SVG Version: 6.00 Build 0)  -->
<!DOCTYPE svg PUBLIC "-//W3C//DTD SVG 1.1//EN" "http://www.w3.org/Graphics/SVG/1.1/DTD/svg11.dtd">
<svg version="1.1" id="Layer_1" xmlns="http://www.w3.org/2000/svg" xmlns:xlink="http://www.w3.org/1999/xlink" x="0px" y="0px"
	 width="772.383px" height="546.423px" viewBox="0 0 772.383 546.423" enable-background="new 0 0 772.383 546.423"
	 xml:space="preserve">
<path fill="#FFFFFF" d="M151.803,361.618c145.792-59.94,301.681-30.926,452.059-68.134c0,3.994,0,5.999,0,10.001
	c-150.371,37.196-306.276,8.187-452.059,68.137C151.803,367.622,151.803,365.618,151.803,361.618z M183.568,193.119
	c1.412-0.51,2.119-0.764,3.532-1.266c0,0.775,0,1.162,0,1.934c0,0.777,0,1.166,0,1.944c-2.229,0.79-3.378,2.903-3.532,5.128
	c0,42.025,0.008,84.049-0.003,126.074c0.121,1.683,0.877,2.83,2.304,2.83c0.367,0,0.775-0.074,1.231-0.235c0,0.776,0,1.157,0,1.933
	c0,0.772,0,1.167,0,1.943c-1.413,0.502-2.119,0.753-3.532,1.266c-11.193,4.071-16.791,6.325-27.986,11.383
	c-1.515,0.686-2.266,1.027-3.779,1.73c0-0.774,0-1.16,0-1.936c0-0.776,0-1.162,0-1.943c2.4-1.115,3.781-3.677,3.781-6.084
	c0-41.695-0.002-83.392,0-125.088c0-1.816-0.787-3.019-2.206-3.019c-0.461,0-0.989,0.127-1.575,0.4c0-0.777,0-1.163,0-1.942
	c0-0.772,0-1.156,0-1.935c1.514-0.698,2.268-1.052,3.781-1.74C166.777,199.443,172.375,197.189,183.568,193.119z M88.449,342.987
	V108.236l-5.951-6.689l8.928-6.989l-2.977-4.318V16.217C70.368,21.099,55.312,31.95,41.896,55.928
	c-23.057,41.212,7.359,64.766,7.359,64.766c-4.708,1.542-9.567,2.315-14.309,2.315c-23.919,0-44.973-19.669-29.844-59.721
	C23.234,15.295,89.481,0,129.222,0s102.539,6.867,102.539,92.23c0,85.372-65.251,92.728-76.368,92.728c-10.548,0-27.289,0-29.014,0
	c0,0-0.14,167.185-0.14,180.995c0,17.941,15.093,28.999,15.093,28.999v3.132c-14.174,0-33.504-22.463-42.891-32.131
	c-9.39-9.676-15.943-10.396-15.943-10.396v-4.051C84.05,351.506,88.449,349.11,88.449,342.987z M126.379,165.441
	c5.117,3.329,9.782,4.812,14.004,4.812c21.517,0,31.521-38.486,31.521-66.732c0-33.855,0.488-91.252-39.287-91.252
	c-2.113,0-4.187,0.009-6.238,0.026V165.441z M316.414,299.084c0-41.697,0-83.39,0-125.082c0-2.271-1.223-4.031-3.387-4.031
	c-0.127,0-0.256,0.006-0.389,0.017c0-0.775,0-1.167,0-1.944s0-1.158,0-1.931c14.581-1.343,21.873-1.824,36.455-2.62
	c0,2.033,0,3.046,0,5.077c-0.601,0.634-0.904,0.957-1.504,1.596c0,0-1.342,8.863,2.679,15.504
	c3.172,5.243,13.815,32.566,17.953,53.592c7.959-23.35,15.909-46.7,23.887-70.046c-0.233-2.022-1.499-3.537-3.576-3.537
	c-0.051,0-0.102,0.002-0.153,0.003c0-0.775,0-1.166,0-1.942c0-0.774,0-1.167,0-1.943c1.513-0.054,2.264-0.072,3.78-0.127
	c11.194-0.375,16.796-0.542,27.987-0.911c1.41-0.048,2.121-0.079,3.533-0.124c0,0.779,0,1.162,0,1.938c0,0.774,0,1.162,0,1.939
	c-2.23,0.079-3.376,1.805-3.533,3.979c-0.023,42.022-0.023,84.049,0,126.073c0.154,2.115,1.254,3.747,3.391,3.747
	c0.047,0,0.094,0,0.143-0.003c0,0.78,0,1.152,0,1.932c0,0.771,0,1.177,0,1.947c-14.119,0.484-21.184,0.673-35.301,1.164
	c0-0.773,0-1.177,0-1.949c0-0.778,0-1.155,0-1.935c2.4-0.076,3.78-2.073,3.78-4.48c0-31.41,0-62.82,0-94.23
	c-9.948,30.18-19.9,60.354-29.823,90.542c0.108,1.64,0.945,2.896,2.58,2.896c0.049,0,0.098-0.002,0.146-0.005
	c0,0.604,0,0.898,0,1.498c0,0.595,0,0.891,0,1.487c-1.088,0.048-1.635,0.078-2.727,0.13c-3.662,0.167-5.492,0.256-9.158,0.444
	c-1.163,0.06-1.746,0.093-2.909,0.158c0-0.599,0-0.902,0-1.499c0-0.6,0-0.893,0-1.49c1.849-0.102,2.909-1.656,2.909-3.509
	c0.102-0.388,0.152-0.581,0.256-0.965c-0.541-7.062-2.394-21.079-8.715-30.039c-8.73-12.379-16.422-36.552-16.422-47.158
	c0,28.462,0,56.919,0,85.379c0.146,2.06,1.199,3.619,3.233,3.619c0.097,0,0.194-0.003,0.295-0.011c0,0.777,0,1.158,0,1.931
	c0,0.773,0,1.168,0,1.942c-7.681,0.535-11.51,0.842-19.187,1.541c0-0.772,0-1.162,0-1.934c0-0.776,0-1.159,0-1.936
	C315.044,303.558,316.414,301.489,316.414,299.084z M446.909,293.07c0-41.693,0-83.384,0-125.078c0-2.354-1.319-4.201-3.617-4.201
	c-0.055,0-0.11,0.003-0.167,0.005c0-0.774,0-1.167,0-1.94c0-0.78,0-1.158,0-1.934c1.511-0.061,2.268-0.099,3.784-0.164
	c10.607-0.449,15.919-0.705,26.528-1.354c0.584-0.033,0.87-0.048,1.459-0.087c1.414-0.085,2.114-0.137,3.529-0.231
	c10.518-0.687,15.779-1.086,26.297-2.082c0,1.931,0,2.892,0,4.82c0,2.562,0,3.842,0,6.408c-1.049,0.099-1.562,0.144-2.605,0.238
	c-1.041,0.094-1.564,0.145-2.604,0.235c0-2.097-1.763-3.283-4.173-3.509c-8.169,0.68-12.25,0.968-20.419,1.479l-0.024,0.377
	c-0.004,21.431-0.004,32.144-0.004,53.576c6.355-0.4,9.541-0.621,15.898-1.117c1.404-0.364,2.428-1.241,2.428-2.468
	c0.609-0.054,0.914-0.069,1.525-0.12c0.605-0.051,0.912-0.077,1.52-0.13c0,1.496,0,2.251,0,3.75c0,1.13,0,1.698,0,2.826
	c0,1.129,0,1.697,0,2.827c0,1.499,0,2.24,0,3.74c-0.607,0.049-0.914,0.078-1.52,0.131c-0.611,0.048-0.916,0.073-1.525,0.124
	c0-1.228-1.023-1.921-2.428-2.064c-6.357,0.501-9.543,0.719-15.898,1.116c0,25.555,0,38.326,0.004,63.879l0.02,0.363
	c8.17-0.508,12.255-0.797,20.424-1.478c2.41-0.629,4.173-2.126,4.173-4.223c1.04-0.091,1.563-0.146,2.604-0.239
	c1.043-0.095,1.557-0.145,2.605-0.242c0,2.561,0,3.841,0,6.401c0,1.93,0,2.899,0,4.827c-24.641,2.343-36.959,2.925-61.598,3.931
	c0-0.773,0-1.168,0-1.94c0-0.779,0-1.159,0-1.936C445.525,297.488,446.909,295.48,446.909,293.07z M674.469,194.003
	c0,0,5.951,8.932,21.385,8.932c2.484,0,5.213-0.231,8.205-0.77c21.564-3.87,31.16-25.513,25.959-54.461
	c-4.567-25.446-32.34-48.982-68.666-48.985c-1.202,0-2.404,0.025-3.623,0.078c0.185,1.055,0.327,2.208,0.346,3.564
	c0,23.017,0,34.531,0,57.548c-0.982,1.864-1.479,2.791-2.46,4.652c2.947,1.01,4.433,1.5,7.378,2.437
	c-1.965,3.125-2.951,4.682-4.918,7.775c0,24.664,0,49.331,0,73.999c0,3.938,2.203,5.011,3.785,5.011c0.451,0,0.85-0.086,1.133-0.218
	c0,1.334,0,2.009,0,3.343c0,0-5.414,3.172-13.165,14.426c-7.757,11.249-23.729,35.844-35.44,39.544c0-1.038,0-1.549,0-2.584
	c0,0,12.475-13.288,12.475-28.114c0-11.408,0-16.991,0-18.97l-0.12,0.035c-0.006-25.814-0.006-51.635-0.006-77.45
	c0.987-1.768,1.476-2.658,2.461-4.436c-2.952-1.252-4.425-1.895-7.378-3.212c1.967-2.874,2.953-4.316,4.917-7.224
	c0-21.474,0.006-32.212,0.006-53.69l-0.046,0.01c0-5.619-1.801-8.388-4.451-8.82c-32.896,11.428-62.011,31.328-103.029,38.696
	c-6.525,1.172-12.332,1.696-17.486,1.696c-34.751,0-40.078-23.778-39.702-33.031c0,0,10.487,8.236,37.687,8.236
	c8.65,0,18.986-0.833,31.217-3.027c50.682-9.099,71.752-24.602,108.648-31.223c6.784-1.219,15.121-1.962,24.281-1.962
	c40.65-0.001,97.521,14.646,107.002,67.454c9.766,54.407-30.043,68.007-45.934,68.007c-3.008,0-5.158-0.487-5.953-1.277
	c0,0-4.727,1.493-11.189,1.493C696.816,221.485,680.842,217.188,674.469,194.003z M600.33,146.847c0,42.023,0,84.044,0,126.067
	c0.13,1.769,0.943,3.022,2.5,3.022c0.313,0,0.657-0.051,1.031-0.158c0,0.78,0,1.155,0,1.937c0,0.771,0,1.163,0,1.941
	c-1.412,0.403-2.113,0.604-3.531,0.997c-4.75,1.323-7.13,1.948-11.879,3.134c-1.516,0.373-2.271,0.56-3.787,0.927
	c0-0.777,0-1.165,0-1.94c0-0.776,0-1.162,0-1.938c2.406-0.578,3.787-2.876,3.787-5.283c0-2.346,0-3.517,0-5.863
	c-3.033-7.115-9.762-18.589-23.674-28.019c-14.543-9.853-21.727-25.948-24.946-35.6c0,26.491,0,52.984,0,79.479
	c0.13,1.961,1.077,3.404,2.922,3.404c0.192,0,0.397-0.014,0.61-0.048c0,0.777,0,1.162,0,1.938s0,1.165,0,1.94
	c-1.416,0.22-2.117,0.324-3.532,0.53c-4.755,0.708-7.128,1.038-11.881,1.645c-1.511,0.197-2.268,0.293-3.78,0.474
	c0-0.771,0-1.163,0-1.935c0-0.78,0-1.159,0-1.938c2.405-0.295,3.78-2.42,3.78-4.829c0-41.698,0-83.395,0-125.088
	c0-2.23-1.182-3.911-3.271-3.911c-0.164,0-0.336,0.01-0.51,0.031c0-0.777,0-1.162,0-1.937c0-0.777,0-1.159,0-1.937
	c12.893-1.579,19.34-2.52,32.23-4.828c0,1.552,0,2.332,0,3.884c-4.076,5.367-1.143,18.914,14.037,33.881
	c8.713,8.585,14.586,17.754,18.014,24.068c0-24.17,0-36.255,0-60.426c0-2.072-1.023-3.548-2.848-3.548
	c-0.291,0-0.605,0.038-0.939,0.118c0-0.775,0-1.167,0-1.94c0-0.778,0-1.157,0-1.932c1.517-0.365,2.271-0.553,3.787-0.925
	c4.749-1.188,7.129-1.811,11.879-3.137c1.418-0.397,2.119-0.599,3.531-1.005c0,0.779,0,1.159,0,1.933c0,0.774,0,1.171,0,1.951
	C601.627,142.623,600.486,144.631,600.33,146.847z M263.223,178.377c-0.452,0-0.877,0.048-1.264,0.146
	c-23.209,5.955-20.535,49.719-20.199,69.186c0.588,33.973-0.338,60.501,11.028,60.501c0.491,0,1.009-0.048,1.548-0.149
	c1.896-0.354,3.509-1.225,4.879-2.556c0.666-0.935,0.99-1.398,1.656-2.329c0-26.229,0-39.339,0-65.564
	c0-2.152-1.102-3.754-3.055-3.754c-0.229,0-0.471,0.022-0.722,0.067c0-0.775,0.005-1.159,0.005-1.937c0-0.776,0-1.166,0-1.941
	c1.512-0.276,2.257-0.41,3.771-0.67c11.191-1.956,16.797-2.771,27.988-4.17c1.414-0.174,2.121-0.268,3.533-0.436
	c0,0.777,0,1.163,0,1.941c0,0.773,0,1.168,0,1.945c-2.234,0.266-3.381,2.094-3.533,4.285c0,19.941,0,29.907,0,49.848
	c0,11.772,1.732,11.87,1.732,11.87c-8.769,14.601-22.467,19.971-36.256,23.146c-3.492,0.801-6.744,1.177-9.781,1.177
	c-29.838,0-38.287-36.417-38.015-62.688c0.366-35.841,14.817-78.95,55.419-85.886c2.003-0.341,3.901-0.486,5.681-0.486
	c0.848,0,1.669,0.033,2.46,0.094c8.243,0.624,13.352,4.184,13.352,4.184c-2.968,6.135-4.454,9.201-7.418,15.371
	C275.553,183.393,267.874,178.377,263.223,178.377z"/>
<path fill="#FFFFFF" d="M391.931,96.396c0,0-5.301,5.656-13.495,13.865c0.059,0.221,0.048,0.43-0.107,0.582l-6.27,6.264
	c-0.099,0.099-0.221,0.127-0.357,0.127c-0.023,0-0.046,0-0.07-0.003l-3.049,3.049l18.301,18.303c0.371,0.368,0.371,0.962,0,1.323
	c-0.409,0.41-0.409,1.084,0,1.493c0.207,0.206,0.478,0.308,0.747,0.308c0.271,0,0.54-0.102,0.745-0.308
	c0.41-0.409,0.41-1.083,0-1.493l-0.348-0.228c-0.48-0.196-0.712-0.741-0.518-1.218c0.15-0.367,0.502-0.59,0.873-0.59
	c0.115,0,0.234,0.022,0.348,0.067c0.365,0.146,0.691,0.365,0.971,0.645c1.14,1.141,1.14,3.002,0,4.142
	c-0.569,0.571-1.32,0.857-2.07,0.857s-1.5-0.286-2.071-0.857c-0.908-0.909-1.096-2.275-0.553-3.371l-17.749-17.747l-17.749,17.747
	c0.538,1.096,0.356,2.462-0.554,3.371c-0.57,0.571-1.32,0.857-2.07,0.857s-1.501-0.286-2.07-0.857c-1.143-1.14-1.143-3.001,0-4.142
	c0.276-0.279,0.604-0.498,0.97-0.645c0.113-0.045,0.231-0.067,0.347-0.067c0.37,0,0.724,0.223,0.872,0.59
	c0.194,0.477-0.036,1.021-0.517,1.218c-0.131,0.054-0.245,0.131-0.35,0.228c-0.408,0.41-0.408,1.084,0,1.493
	c0.206,0.206,0.476,0.308,0.746,0.308c0.27,0,0.54-0.102,0.748-0.308c0.408-0.409,0.408-1.083,0-1.493
	c-0.365-0.361-0.365-0.955,0-1.323l18.299-18.303l-3.049-3.049c-0.023,0.003-0.047,0.003-0.071,0.003
	c-0.136,0-0.259-0.026-0.356-0.127l-6.266-6.264c-0.151-0.152-0.168-0.361-0.104-0.585c-8.198-8.206-13.5-13.862-13.5-13.862
	s2.512,2.356,6.604,6.342c-3.982-4.09-6.341-6.602-6.341-6.602s2.512,2.354,6.609,6.345c-3.986-4.095-6.346-6.608-6.346-6.608
	s2.511,2.353,6.6,6.335c-3.98-4.09-6.338-6.6-6.338-6.6s5.66,5.299,13.861,13.498c0.08-0.022,0.156-0.035,0.229-0.035
	c0.135,0,0.258,0.042,0.354,0.14l6.27,6.264c0.112,0.121,0.134,0.271,0.12,0.432l3.049,3.049l3.05-3.049
	c-0.014-0.161,0.007-0.311,0.12-0.432l6.27-6.264c0.1-0.098,0.223-0.14,0.357-0.14c0.071,0,0.147,0.013,0.225,0.035
	c8.206-8.199,13.862-13.498,13.862-13.498s-2.354,2.506-6.327,6.591c4.084-3.977,6.59-6.326,6.59-6.326s-2.346,2.5-6.318,6.577
	c4.078-3.966,6.582-6.313,6.582-6.313s-2.344,2.499-6.314,6.576C389.43,98.741,391.931,96.396,391.931,96.396z"/>
<path fill="#212121" d="M1074.763,361.618c145.792-59.94,301.681-30.926,452.059-68.134c0,3.994,0,5.999,0,10.001
	c-150.371,37.196-306.276,8.187-452.059,68.137C1074.763,367.622,1074.763,365.618,1074.763,361.618z M1106.528,193.119
	c1.412-0.51,2.119-0.764,3.532-1.266c0,0.775,0,1.162,0,1.934c0,0.777,0,1.166,0,1.944c-2.229,0.79-3.378,2.903-3.532,5.128
	c0,42.025,0.008,84.049-0.003,126.074c0.121,1.683,0.877,2.83,2.304,2.83c0.367,0,0.775-0.074,1.231-0.235c0,0.776,0,1.157,0,1.933
	c0,0.772,0,1.167,0,1.943c-1.413,0.502-2.119,0.753-3.532,1.266c-11.193,4.071-16.791,6.325-27.986,11.383
	c-1.515,0.686-2.266,1.027-3.779,1.73c0-0.774,0-1.16,0-1.936c0-0.776,0-1.162,0-1.943c2.4-1.115,3.781-3.677,3.781-6.084
	c0-41.695-0.002-83.392,0-125.088c0-1.816-0.787-3.019-2.206-3.019c-0.461,0-0.989,0.127-1.575,0.4c0-0.777,0-1.163,0-1.942
	c0-0.772,0-1.156,0-1.935c1.514-0.698,2.268-1.052,3.781-1.74C1089.737,199.443,1095.335,197.189,1106.528,193.119z
	 M1011.409,342.987V108.236l-5.951-6.689l8.928-6.989l-2.977-4.318V16.217c-18.081,4.882-33.137,15.733-46.553,39.711
	c-23.057,41.212,7.359,64.766,7.359,64.766c-4.708,1.542-9.567,2.315-14.309,2.315c-23.919,0-44.973-19.669-29.844-59.721
	C946.194,15.295,1012.441,0,1052.182,0s102.539,6.867,102.539,92.23c0,85.372-65.251,92.728-76.368,92.728
	c-10.548,0-27.289,0-29.014,0c0,0-0.14,167.185-0.14,180.995c0,17.941,15.093,28.999,15.093,28.999v3.132
	c-14.174,0-33.504-22.463-42.891-32.131c-9.39-9.676-15.943-10.396-15.943-10.396v-4.051
	C1007.01,351.506,1011.409,349.11,1011.409,342.987z M1049.339,165.441c5.117,3.329,9.782,4.812,14.004,4.812
	c21.517,0,31.521-38.486,31.521-66.732c0-33.855,0.488-91.252-39.287-91.252c-2.113,0-4.187,0.009-6.238,0.026V165.441z
	 M1239.374,299.084c0-41.697,0-83.39,0-125.082c0-2.271-1.223-4.031-3.387-4.031c-0.127,0-0.256,0.006-0.389,0.017
	c0-0.775,0-1.167,0-1.944s0-1.158,0-1.931c14.581-1.343,21.873-1.824,36.455-2.62c0,2.033,0,3.046,0,5.077
	c-0.601,0.634-0.904,0.957-1.504,1.596c0,0-1.342,8.863,2.679,15.504c3.172,5.243,13.815,32.566,17.953,53.592
	c7.959-23.35,15.909-46.7,23.887-70.046c-0.233-2.022-1.499-3.537-3.576-3.537c-0.051,0-0.102,0.002-0.153,0.003
	c0-0.775,0-1.166,0-1.942c0-0.774,0-1.167,0-1.943c1.513-0.054,2.264-0.072,3.78-0.127c11.194-0.375,16.796-0.542,27.987-0.911
	c1.41-0.048,2.121-0.079,3.533-0.124c0,0.779,0,1.162,0,1.938c0,0.774,0,1.162,0,1.939c-2.23,0.079-3.376,1.805-3.533,3.979
	c-0.023,42.022-0.023,84.049,0,126.073c0.154,2.115,1.254,3.747,3.391,3.747c0.047,0,0.094,0,0.143-0.003c0,0.78,0,1.152,0,1.932
	c0,0.771,0,1.177,0,1.947c-14.119,0.484-21.184,0.673-35.301,1.164c0-0.773,0-1.177,0-1.949c0-0.778,0-1.155,0-1.935
	c2.4-0.076,3.78-2.073,3.78-4.48c0-31.41,0-62.82,0-94.23c-9.948,30.18-19.9,60.354-29.823,90.542
	c0.108,1.64,0.945,2.896,2.58,2.896c0.049,0,0.098-0.002,0.146-0.005c0,0.604,0,0.898,0,1.498c0,0.595,0,0.891,0,1.487
	c-1.088,0.048-1.635,0.078-2.727,0.13c-3.662,0.167-5.492,0.256-9.158,0.444c-1.163,0.06-1.746,0.093-2.909,0.158
	c0-0.599,0-0.902,0-1.499c0-0.6,0-0.893,0-1.49c1.849-0.102,2.909-1.656,2.909-3.509c0.102-0.388,0.152-0.581,0.256-0.965
	c-0.541-7.062-2.394-21.079-8.715-30.039c-8.73-12.379-16.422-36.552-16.422-47.158c0,28.462,0,56.919,0,85.379
	c0.146,2.06,1.199,3.619,3.233,3.619c0.097,0,0.194-0.003,0.295-0.011c0,0.777,0,1.158,0,1.931c0,0.773,0,1.168,0,1.942
	c-7.681,0.535-11.51,0.842-19.187,1.541c0-0.772,0-1.162,0-1.934c0-0.776,0-1.159,0-1.936
	C1238.004,303.558,1239.374,301.489,1239.374,299.084z M1369.869,293.07c0-41.693,0-83.384,0-125.078
	c0-2.354-1.319-4.201-3.617-4.201c-0.055,0-0.11,0.003-0.167,0.005c0-0.774,0-1.167,0-1.94c0-0.78,0-1.158,0-1.934
	c1.511-0.061,2.268-0.099,3.784-0.164c10.607-0.449,15.919-0.705,26.528-1.354c0.584-0.033,0.87-0.048,1.459-0.087
	c1.414-0.085,2.114-0.137,3.529-0.231c10.518-0.687,15.779-1.086,26.297-2.082c0,1.931,0,2.892,0,4.82c0,2.562,0,3.842,0,6.408
	c-1.049,0.099-1.562,0.144-2.605,0.238c-1.041,0.094-1.564,0.145-2.604,0.235c0-2.097-1.763-3.283-4.173-3.509
	c-8.169,0.68-12.25,0.968-20.419,1.479l-0.024,0.377c-0.004,21.431-0.004,32.144-0.004,53.576c6.355-0.4,9.541-0.621,15.898-1.117
	c1.404-0.364,2.428-1.241,2.428-2.468c0.609-0.054,0.914-0.069,1.525-0.12c0.605-0.051,0.912-0.077,1.52-0.13
	c0,1.496,0,2.251,0,3.75c0,1.13,0,1.698,0,2.826c0,1.129,0,1.697,0,2.827c0,1.499,0,2.24,0,3.74
	c-0.607,0.049-0.914,0.078-1.52,0.131c-0.611,0.048-0.916,0.073-1.525,0.124c0-1.228-1.023-1.921-2.428-2.064
	c-6.357,0.501-9.543,0.719-15.898,1.116c0,25.555,0,38.326,0.004,63.879l0.02,0.363c8.17-0.508,12.255-0.797,20.424-1.478
	c2.41-0.629,4.173-2.126,4.173-4.223c1.04-0.091,1.563-0.146,2.604-0.239c1.043-0.095,1.557-0.145,2.605-0.242
	c0,2.561,0,3.841,0,6.401c0,1.93,0,2.899,0,4.827c-24.641,2.343-36.959,2.925-61.598,3.931c0-0.773,0-1.168,0-1.94
	c0-0.779,0-1.159,0-1.936C1368.485,297.488,1369.869,295.48,1369.869,293.07z M1597.429,194.003c0,0,5.951,8.932,21.385,8.932
	c2.484,0,5.213-0.231,8.205-0.77c21.564-3.87,31.16-25.513,25.959-54.461c-4.567-25.446-32.34-48.982-68.666-48.985
	c-1.202,0-2.404,0.025-3.623,0.078c0.185,1.055,0.327,2.208,0.346,3.564c0,23.017,0,34.531,0,57.548
	c-0.982,1.864-1.479,2.791-2.46,4.652c2.947,1.01,4.433,1.5,7.378,2.437c-1.965,3.125-2.951,4.682-4.918,7.775
	c0,24.664,0,49.331,0,73.999c0,3.938,2.203,5.011,3.785,5.011c0.451,0,0.85-0.086,1.133-0.218c0,1.334,0,2.009,0,3.343
	c0,0-5.414,3.172-13.165,14.426c-7.757,11.249-23.729,35.844-35.44,39.544c0-1.038,0-1.549,0-2.584c0,0,12.475-13.288,12.475-28.114
	c0-11.408,0-16.991,0-18.97l-0.12,0.035c-0.006-25.814-0.006-51.635-0.006-77.45c0.987-1.768,1.476-2.658,2.461-4.436
	c-2.952-1.252-4.425-1.895-7.378-3.212c1.967-2.874,2.953-4.316,4.917-7.224c0-21.474,0.006-32.212,0.006-53.69l-0.046,0.01
	c0-5.619-1.801-8.388-4.451-8.82c-32.896,11.428-62.011,31.328-103.029,38.696c-6.525,1.172-12.332,1.696-17.486,1.696
	c-34.751,0-40.078-23.778-39.702-33.031c0,0,10.487,8.236,37.687,8.236c8.65,0,18.986-0.833,31.217-3.027
	c50.682-9.099,71.752-24.602,108.648-31.223c6.784-1.219,15.121-1.962,24.281-1.962c40.65-0.001,97.521,14.646,107.002,67.454
	c9.766,54.407-30.043,68.007-45.934,68.007c-3.008,0-5.158-0.487-5.953-1.277c0,0-4.727,1.493-11.189,1.493
	C1619.776,221.485,1603.802,217.188,1597.429,194.003z M1523.29,146.847c0,42.023,0,84.044,0,126.067
	c0.13,1.769,0.943,3.022,2.5,3.022c0.313,0,0.657-0.051,1.031-0.158c0,0.78,0,1.155,0,1.937c0,0.771,0,1.163,0,1.941
	c-1.412,0.403-2.113,0.604-3.531,0.997c-4.75,1.323-7.13,1.948-11.879,3.134c-1.516,0.373-2.271,0.56-3.787,0.927
	c0-0.777,0-1.165,0-1.94c0-0.776,0-1.162,0-1.938c2.406-0.578,3.787-2.876,3.787-5.283c0-2.346,0-3.517,0-5.863
	c-3.033-7.115-9.762-18.589-23.674-28.019c-14.543-9.853-21.727-25.948-24.946-35.6c0,26.491,0,52.984,0,79.479
	c0.13,1.961,1.077,3.404,2.922,3.404c0.192,0,0.397-0.014,0.61-0.048c0,0.777,0,1.162,0,1.938s0,1.165,0,1.94
	c-1.416,0.22-2.117,0.324-3.532,0.53c-4.755,0.708-7.128,1.038-11.881,1.645c-1.511,0.197-2.268,0.293-3.78,0.474
	c0-0.771,0-1.163,0-1.935c0-0.78,0-1.159,0-1.938c2.405-0.295,3.78-2.42,3.78-4.829c0-41.698,0-83.395,0-125.088
	c0-2.23-1.182-3.911-3.271-3.911c-0.164,0-0.336,0.01-0.51,0.031c0-0.777,0-1.162,0-1.937c0-0.777,0-1.159,0-1.937
	c12.893-1.579,19.34-2.52,32.23-4.828c0,1.552,0,2.332,0,3.884c-4.076,5.367-1.143,18.914,14.037,33.881
	c8.713,8.585,14.586,17.754,18.014,24.068c0-24.17,0-36.255,0-60.426c0-2.072-1.023-3.548-2.848-3.548
	c-0.291,0-0.605,0.038-0.939,0.118c0-0.775,0-1.167,0-1.94c0-0.778,0-1.157,0-1.932c1.517-0.365,2.271-0.553,3.787-0.925
	c4.749-1.188,7.129-1.811,11.879-3.137c1.418-0.397,2.119-0.599,3.531-1.005c0,0.779,0,1.159,0,1.933c0,0.774,0,1.171,0,1.951
	C1524.587,142.623,1523.446,144.631,1523.29,146.847z M1186.183,178.377c-0.452,0-0.877,0.048-1.264,0.146
	c-23.209,5.955-20.535,49.719-20.199,69.186c0.588,33.973-0.338,60.501,11.028,60.501c0.491,0,1.009-0.048,1.548-0.149
	c1.896-0.354,3.509-1.225,4.879-2.556c0.666-0.935,0.99-1.398,1.656-2.329c0-26.229,0-39.339,0-65.564
	c0-2.152-1.102-3.754-3.055-3.754c-0.229,0-0.471,0.022-0.722,0.067c0-0.775,0.005-1.159,0.005-1.937c0-0.776,0-1.166,0-1.941
	c1.512-0.276,2.257-0.41,3.771-0.67c11.191-1.956,16.797-2.771,27.988-4.17c1.414-0.174,2.121-0.268,3.533-0.436
	c0,0.777,0,1.163,0,1.941c0,0.773,0,1.168,0,1.945c-2.234,0.266-3.381,2.094-3.533,4.285c0,19.941,0,29.907,0,49.848
	c0,11.772,1.732,11.87,1.732,11.87c-8.769,14.601-22.467,19.971-36.256,23.146c-3.492,0.801-6.744,1.177-9.781,1.177
	c-29.838,0-38.287-36.417-38.015-62.688c0.366-35.841,14.817-78.95,55.419-85.886c2.003-0.341,3.901-0.486,5.681-0.486
	c0.848,0,1.669,0.033,2.46,0.094c8.243,0.624,13.352,4.184,13.352,4.184c-2.968,6.135-4.454,9.201-7.418,15.371
	C1198.513,183.393,1190.834,178.377,1186.183,178.377z M1395.214,365.947c-1.895,0.191-2.847,0.289-4.745,0.478
	c0,4.314,0,6.47,0,10.783c1.898-0.228,2.851-0.34,4.745-0.565C1395.214,372.364,1395.214,370.227,1395.214,365.947z
	 M1185.898,386.644c-1.619,0.273-2.431,0.411-4.054,0.696c0,6.39,0,9.587,0,15.975c1.623-0.312,2.435-0.476,4.054-0.781
	C1185.898,396.176,1185.898,393,1185.898,386.644z M1359.489,369.339c-0.996,8.68-1.501,13.034-2.496,21.777
	c1.994-0.233,2.989-0.353,4.98-0.589C1360.978,382.086,1360.483,377.847,1359.489,369.339z M1327.989,371.853
	c-1.618,0.119-2.426,0.182-4.047,0.306c0,5.279,0,7.922,0,13.199c1.621-0.152,2.429-0.234,4.047-0.39
	C1327.989,379.721,1327.989,377.103,1327.989,371.853z M1010.298,481.367l-74.002,4.408c0,0,32.242-39.233,110.199-74.564
	c18.162-8.232,38.807-16.253,62.104-23.516c25.026-7.804,53.101-14.728,84.46-20.106c27.966-4.797,58.539-8.362,91.857-10.214
	c275.528-15.307,305.174-49.882,333.227-67.083l-2.574,47.19c0,0-22.537,20.402-85.273,41.774
	c-43.056,14.67-105.051,29.8-191.672,39.099c-58.015,6.23-106.001,14.291-145.564,23.894
	c-105.582,25.629-151.154,62.22-167.043,104.174L1010.298,481.367z M1505.854,372.644c0,1.015,0.937,1.627,2.223,1.627
	c0.467,0,0.981-0.082,1.515-0.254c3.394-1.089,5.087-1.658,8.478-2.833c2.047-0.715,3.737-2.452,3.737-3.789
	c0-4.812,0-7.209,0-12.015c0-0.985-0.866-1.595-2.159-1.595c-0.475,0-1.008,0.083-1.578,0.258c-2.645,0.826-3.968,1.227-6.61,1.997
	c0-3.491,0-5.24,0-8.729c1.896-0.519,2.843-0.786,4.739-1.328c0,1.969,0,2.944,0,4.909c2.244-0.672,3.365-1.012,5.608-1.715
	c0-2.464,0-3.699,0-6.164c0-1.044-0.867-1.624-2.163-1.624c-0.475,0-1.007,0.078-1.574,0.239c-3.391,0.972-5.084,1.426-8.478,2.312
	c-2.228,0.581-3.737,2.038-3.737,3.556c0,4.588,0,6.889,0,11.476c0,0.985,0.91,1.696,2.302,1.696c0.436,0,0.919-0.07,1.436-0.223
	c2.646-0.778,3.964-1.182,6.606-2.008c0,3.83,0,5.742,0,9.572c-1.896,0.629-2.844,0.941-4.739,1.545c0-2.072,0-3.106,0-5.177
	c-2.242,0.695-3.36,1.025-5.604,1.682C1505.854,368.695,1505.854,370.012,1505.854,372.644z M1473.36,381.282
	c0,1.192,1.139,1.967,2.627,1.967c0.355,0,0.73-0.044,1.115-0.137c3.387-0.817,5.076-1.246,8.463-2.124
	c2.056-0.538,3.736-2.199,3.736-3.632c0-2.722,0-4.084,0-6.806c-2.24,0.561-3.369,0.838-5.605,1.373c0,2.191,0,3.286,0,5.478
	c-1.895,0.474-2.836,0.699-4.729,1.153c0-9.494,0-14.242,0-23.729c1.893-0.368,2.834-0.553,4.729-0.938c0,2.166,0,3.257,0,5.424
	c2.236-0.479,3.365-0.733,5.605-1.238c0-2.685,0-4.027,0-6.708c0-1.194-1.122-2.026-2.723-2.026c-0.32,0-0.66,0.034-1.014,0.104
	c-3.387,0.671-5.076,0.992-8.463,1.604c-1.994,0.361-3.742,1.96-3.742,3.437C1473.36,365.206,1473.36,370.563,1473.36,381.282z
	 M1450.337,388.945c2.243-0.439,3.364-0.66,5.602-1.12c0-13.342,0-20.016,0-33.362c-2.237,0.322-3.358,0.476-5.602,0.776
	C1450.337,368.723,1450.337,375.462,1450.337,388.945z M1416.989,394.834c2.24-0.367,3.359-0.545,5.596-0.917
	c0-5.803,0-8.71,0-14.517c1.895-0.266,2.836-0.4,4.727-0.672c0,5.758,0,8.64,0,14.398c2.238-0.379,3.363-0.57,5.6-0.963
	c0-13.905,0-20.869,0-34.776c-2.236,0.254-3.361,0.378-5.6,0.618c0,6.483,0,9.725,0,16.205c-1.891,0.263-2.832,0.39-4.727,0.641
	c0-6.535,0-9.801,0-16.337c-2.236,0.231-3.355,0.345-5.596,0.568C1416.989,373.385,1416.989,380.537,1416.989,394.834z
	 M1384.875,399.849c2.241-0.345,3.354-0.522,5.594-0.866c0-6.789,0-10.183,0-16.975c2.64-0.334,3.972-0.494,6.614-0.832
	c2.049-0.261,3.723-1.896,3.723-3.574c0-5.519,0-8.276,0-13.796c0-1.569-1.413-2.83-3.318-2.83c-0.133,0-0.268,0.006-0.404,0.02
	c-4.885,0.457-7.323,0.677-12.208,1.134c0,8.232,0,12.352,0,20.583C1384.875,389.566,1384.875,392.993,1384.875,399.849z
	 M1349.894,404.864c2.244-0.301,3.369-0.457,5.61-0.767c0.35-3.137,0.521-4.705,0.868-7.843c2.492-0.31,3.74-0.465,6.232-0.784
	c0.345,3.016,0.519,4.516,0.862,7.52c2.188-0.308,3.287-0.46,5.479-0.775c-1.79-15.216-2.688-22.888-4.479-38.327
	c-3.982,0.317-5.973,0.474-9.959,0.774C1352.663,380.633,1351.743,388.671,1349.894,404.864z M1318.339,408.993
	c2.244-0.289,3.361-0.436,5.604-0.724c0-7.033,0-10.551,0-17.585c1.893-0.191,2.838-0.293,4.73-0.487c0,6.983,0,10.475,0,17.459
	c2.238-0.289,3.357-0.433,5.601-0.724c0-6.721,0.006-10.074,0.006-16.793c0-1.457-2.61-3.138-2.614-3.181
	c0,0,1.929-1.596,1.929-3.054c0-5.694,0-8.542,0-14.237c0-1.782-1.48-3.265-3.462-3.265c-0.09,0-0.182,0.003-0.275,0.01
	c-4.607,0.314-6.909,0.474-11.518,0.781C1318.339,383.913,1318.339,392.277,1318.339,408.993z M1284.974,409.654
	c0,1.842,1.475,3.227,3.266,3.227c0.154,0,0.311-0.008,0.469-0.031c3.389-0.448,5.08-0.68,8.471-1.125
	c2.051-0.268,3.73-2.135,3.73-4.092c0-6.901,0-10.359,0-17.264c-2.99,0.299-4.477,0.455-7.46,0.759c0,2.226,0,3.333,0,5.558
	c0.747-0.082,1.112-0.12,1.856-0.202c0,3.977,0,5.964,0,9.939c-1.891,0.231-2.832,0.353-4.727,0.589c0-12.924,0-19.389,0-32.307
	c1.895-0.152,2.836-0.225,4.727-0.371c0,2.957,0,4.44,0,7.399c2.241-0.199,3.361-0.298,5.604-0.494c0-3.673,0-5.501,0-9.171
	c0-1.876-1.475-3.432-3.455-3.432c-0.09,0-0.182,0.003-0.275,0.01c-3.391,0.237-5.082,0.353-8.471,0.597
	c-1.995,0.143-3.734,2.023-3.734,4.03C1284.974,387.828,1284.974,395.104,1284.974,409.654z M1249.999,418.333
	c2.239-0.342,3.365-0.511,5.598-0.844c0.354-3.63,0.527-5.429,0.878-9.049c2.49-0.34,3.733-0.508,6.224-0.836
	c0.348,3.488,0.521,5.226,0.869,8.712c2.189-0.316,3.286-0.466,5.478-0.773c-1.796-17.675-2.694-26.565-4.485-44.455
	c-3.982,0.328-5.975,0.495-9.962,0.851C1252.761,390.382,1251.839,399.656,1249.999,418.333z M1209.294,425.296
	c2.317-0.445,3.474-0.662,5.787-1.094c0-10.394,0-15.584,0-25.981c1.693,6.014,2.539,8.991,4.232,14.937
	c1.816-0.302,2.73-0.442,4.545-0.738c1.84-6.498,2.769-9.727,4.609-16.136c0,10.219,0,15.32,0,25.538
	c2.242-0.386,3.358-0.572,5.604-0.941c0-18.786,0-28.181,0-46.965c-2.246,0.237-3.362,0.355-5.604,0.606
	c-2.762,9.764-4.143,14.685-6.906,24.639c-2.664-9.15-4.004-13.756-6.668-23.051c-2.238,0.276-3.359,0.413-5.6,0.708
	C1209.294,396.21,1209.294,405.906,1209.294,425.296z M1176.241,432.342c2.242-0.53,3.361-0.79,5.604-1.301
	c0-8.515,0-12.771,0-21.282c1.893-0.384,2.838-0.568,4.73-0.938c0,8.461,0,12.691,0,21.152c2.242-0.494,3.367-0.736,5.609-1.21
	c0-8.154,0-12.227,0-20.377c0-1.771-2.604-3.633-2.611-3.695c0,0,1.92-2.049,1.92-3.818c0-6.907,0-10.36,0-17.271
	c0-2.076-1.359-3.718-3.213-3.718c-0.17,0-0.343,0.015-0.521,0.043c-4.608,0.729-6.91,1.111-11.519,1.919
	C1176.241,402.043,1176.241,412.143,1176.241,432.342z M1145.005,440.537c5.777-1.672,8.66-2.468,14.438-3.99
	c0-2.654,0-3.975,0-6.625c-3.536,0.905-5.302,1.367-8.842,2.329c0-7.048,0-10.579,0-17.63c2.366-0.592,3.55-0.88,5.913-1.446
	c0-2.663,0-3.997,0-6.659c-2.363,0.55-3.547,0.83-5.913,1.407c0-5.738,0-8.607,0-14.35c3.364-0.759,5.04-1.123,8.405-1.833
	c0-2.651,0-3.98,0-6.637c-5.607,1.143-8.4,1.738-14.002,3.021C1145.005,409.092,1145.005,419.571,1145.005,440.537z
	 M1111.639,451.322c4.878-1.748,7.315-2.592,12.195-4.208c2.054-0.686,3.731-3.3,3.731-5.742c0-17.754,0-26.621,0-44.38
	c0-2.123-1.219-3.705-2.928-3.705c-0.258,0-0.525,0.035-0.804,0.111c-4.88,1.319-7.317,2.02-12.195,3.467
	C1111.639,418.648,1111.639,429.535,1111.639,451.322z M1117.243,442.388c1.889-0.641,2.828-0.953,4.724-1.574
	c0-15.988,0-23.983,0-39.978c-1.896,0.534-2.835,0.806-4.724,1.361C1117.243,418.271,1117.243,426.312,1117.243,442.388z
	 M1259.578,377.351c-0.991,10.023-1.496,15.058-2.489,25.148c1.992-0.249,2.994-0.38,4.988-0.632
	C1261.077,392.09,1260.578,387.193,1259.578,377.351z"/>
<path fill="#212121" d="M1314.891,96.396c0,0-5.301,5.656-13.495,13.865c0.059,0.221,0.048,0.43-0.107,0.582l-6.27,6.264
	c-0.099,0.099-0.221,0.127-0.357,0.127c-0.023,0-0.046,0-0.07-0.003l-3.049,3.049l18.301,18.303c0.371,0.368,0.371,0.962,0,1.323
	c-0.409,0.41-0.409,1.084,0,1.493c0.207,0.206,0.478,0.308,0.747,0.308c0.271,0,0.54-0.102,0.745-0.308
	c0.41-0.409,0.41-1.083,0-1.493l-0.348-0.228c-0.48-0.196-0.712-0.741-0.518-1.218c0.15-0.367,0.502-0.59,0.873-0.59
	c0.115,0,0.234,0.022,0.348,0.067c0.365,0.146,0.691,0.365,0.971,0.645c1.14,1.141,1.14,3.002,0,4.142
	c-0.569,0.571-1.32,0.857-2.07,0.857s-1.5-0.286-2.071-0.857c-0.908-0.909-1.096-2.275-0.553-3.371l-17.749-17.747l-17.749,17.747
	c0.538,1.096,0.356,2.462-0.554,3.371c-0.57,0.571-1.32,0.857-2.07,0.857s-1.501-0.286-2.07-0.857c-1.143-1.14-1.143-3.001,0-4.142
	c0.276-0.279,0.604-0.498,0.97-0.645c0.113-0.045,0.231-0.067,0.347-0.067c0.37,0,0.724,0.223,0.872,0.59
	c0.194,0.477-0.036,1.021-0.517,1.218c-0.131,0.054-0.245,0.131-0.35,0.228c-0.408,0.41-0.408,1.084,0,1.493
	c0.206,0.206,0.476,0.308,0.746,0.308c0.27,0,0.54-0.102,0.748-0.308c0.408-0.409,0.408-1.083,0-1.493
	c-0.365-0.361-0.365-0.955,0-1.323l18.299-18.303l-3.049-3.049c-0.023,0.003-0.047,0.003-0.071,0.003
	c-0.136,0-0.259-0.026-0.356-0.127l-6.266-6.264c-0.151-0.152-0.168-0.361-0.104-0.585c-8.198-8.206-13.5-13.862-13.5-13.862
	s2.512,2.356,6.604,6.342c-3.982-4.09-6.341-6.602-6.341-6.602s2.512,2.354,6.609,6.345c-3.986-4.095-6.346-6.608-6.346-6.608
	s2.511,2.353,6.6,6.335c-3.98-4.09-6.338-6.6-6.338-6.6s5.66,5.299,13.861,13.498c0.08-0.022,0.156-0.035,0.229-0.035
	c0.135,0,0.258,0.042,0.354,0.14l6.27,6.264c0.112,0.121,0.134,0.271,0.12,0.432l3.049,3.049l3.05-3.049
	c-0.014-0.161,0.007-0.311,0.12-0.432l6.27-6.264c0.1-0.098,0.223-0.14,0.357-0.14c0.071,0,0.147,0.013,0.225,0.035
	c8.206-8.199,13.862-13.498,13.862-13.498s-2.354,2.506-6.327,6.591c4.084-3.977,6.59-6.326,6.59-6.326s-2.346,2.5-6.318,6.577
	c4.078-3.966,6.582-6.313,6.582-6.313s-2.344,2.499-6.314,6.576C1312.39,98.741,1314.891,96.396,1314.891,96.396z"/>
<path fill="#212121" d="M1980.763,361.618c145.792-59.94,301.681-30.926,452.059-68.134c0,3.994,0,5.999,0,10.001
	c-150.371,37.196-306.276,8.187-452.059,68.137C1980.763,367.622,1980.763,365.618,1980.763,361.618z M2012.528,193.119
	c1.412-0.51,2.119-0.764,3.532-1.266c0,0.775,0,1.162,0,1.934c0,0.777,0,1.166,0,1.944c-2.229,0.79-3.378,2.903-3.532,5.128
	c0,42.025,0.008,84.049-0.003,126.074c0.121,1.683,0.877,2.83,2.304,2.83c0.367,0,0.775-0.074,1.231-0.235c0,0.776,0,1.157,0,1.933
	c0,0.772,0,1.167,0,1.943c-1.413,0.502-2.119,0.753-3.532,1.266c-11.193,4.071-16.791,6.325-27.986,11.383
	c-1.515,0.686-2.266,1.027-3.779,1.73c0-0.774,0-1.16,0-1.936c0-0.776,0-1.162,0-1.943c2.4-1.115,3.781-3.677,3.781-6.084
	c0-41.695-0.002-83.392,0-125.088c0-1.816-0.787-3.019-2.206-3.019c-0.461,0-0.989,0.127-1.575,0.4c0-0.777,0-1.163,0-1.942
	c0-0.772,0-1.156,0-1.935c1.514-0.698,2.268-1.052,3.781-1.74C1995.737,199.443,2001.335,197.189,2012.528,193.119z
	 M1917.409,342.987V108.236l-5.951-6.689l8.928-6.989l-2.977-4.318V16.217c-18.081,4.882-33.137,15.733-46.553,39.711
	c-23.057,41.212,7.359,64.766,7.359,64.766c-4.708,1.542-9.567,2.315-14.309,2.315c-23.919,0-44.973-19.669-29.844-59.721
	C1852.194,15.295,1918.441,0,1958.182,0s102.539,6.867,102.539,92.23c0,85.372-65.251,92.728-76.368,92.728
	c-10.548,0-27.289,0-29.014,0c0,0-0.14,167.185-0.14,180.995c0,17.941,15.093,28.999,15.093,28.999v3.132
	c-14.174,0-33.504-22.463-42.891-32.131c-9.39-9.676-15.943-10.396-15.943-10.396v-4.051
	C1913.01,351.506,1917.409,349.11,1917.409,342.987z M1955.339,165.441c5.117,3.329,9.782,4.812,14.004,4.812
	c21.517,0,31.521-38.486,31.521-66.732c0-33.855,0.488-91.252-39.287-91.252c-2.113,0-4.187,0.009-6.238,0.026V165.441z
	 M2145.374,299.084c0-41.697,0-83.39,0-125.082c0-2.271-1.223-4.031-3.387-4.031c-0.127,0-0.256,0.006-0.389,0.017
	c0-0.775,0-1.167,0-1.944s0-1.158,0-1.931c14.581-1.343,21.873-1.824,36.455-2.62c0,2.033,0,3.046,0,5.077
	c-0.601,0.634-0.904,0.957-1.504,1.596c0,0-1.342,8.863,2.679,15.504c3.172,5.243,13.815,32.566,17.953,53.592
	c7.959-23.35,15.909-46.7,23.887-70.046c-0.233-2.022-1.499-3.537-3.576-3.537c-0.051,0-0.102,0.002-0.153,0.003
	c0-0.775,0-1.166,0-1.942c0-0.774,0-1.167,0-1.943c1.513-0.054,2.264-0.072,3.78-0.127c11.194-0.375,16.796-0.542,27.987-0.911
	c1.41-0.048,2.121-0.079,3.533-0.124c0,0.779,0,1.162,0,1.938c0,0.774,0,1.162,0,1.939c-2.23,0.079-3.376,1.805-3.533,3.979
	c-0.023,42.022-0.023,84.049,0,126.073c0.154,2.115,1.254,3.747,3.391,3.747c0.047,0,0.094,0,0.143-0.003c0,0.78,0,1.152,0,1.932
	c0,0.771,0,1.177,0,1.947c-14.119,0.484-21.184,0.673-35.301,1.164c0-0.773,0-1.177,0-1.949c0-0.778,0-1.155,0-1.935
	c2.4-0.076,3.78-2.073,3.78-4.48c0-31.41,0-62.82,0-94.23c-9.948,30.18-19.9,60.354-29.823,90.542
	c0.108,1.64,0.945,2.896,2.58,2.896c0.049,0,0.098-0.002,0.146-0.005c0,0.604,0,0.898,0,1.498c0,0.595,0,0.891,0,1.487
	c-1.088,0.048-1.635,0.078-2.727,0.13c-3.662,0.167-5.492,0.256-9.158,0.444c-1.163,0.06-1.746,0.093-2.909,0.158
	c0-0.599,0-0.902,0-1.499c0-0.6,0-0.893,0-1.49c1.849-0.102,2.909-1.656,2.909-3.509c0.102-0.388,0.152-0.581,0.256-0.965
	c-0.541-7.062-2.394-21.079-8.715-30.039c-8.73-12.379-16.422-36.552-16.422-47.158c0,28.462,0,56.919,0,85.379
	c0.146,2.06,1.199,3.619,3.233,3.619c0.097,0,0.194-0.003,0.295-0.011c0,0.777,0,1.158,0,1.931c0,0.773,0,1.168,0,1.942
	c-7.681,0.535-11.51,0.842-19.187,1.541c0-0.772,0-1.162,0-1.934c0-0.776,0-1.159,0-1.936
	C2144.004,303.558,2145.374,301.489,2145.374,299.084z M2275.869,293.07c0-41.693,0-83.384,0-125.078
	c0-2.354-1.319-4.201-3.617-4.201c-0.055,0-0.11,0.003-0.167,0.005c0-0.774,0-1.167,0-1.94c0-0.78,0-1.158,0-1.934
	c1.511-0.061,2.268-0.099,3.784-0.164c10.607-0.449,15.919-0.705,26.528-1.354c0.584-0.033,0.87-0.048,1.459-0.087
	c1.414-0.085,2.114-0.137,3.529-0.231c10.518-0.687,15.779-1.086,26.297-2.082c0,1.931,0,2.892,0,4.82c0,2.562,0,3.842,0,6.408
	c-1.049,0.099-1.562,0.144-2.605,0.238c-1.041,0.094-1.564,0.145-2.604,0.235c0-2.097-1.763-3.283-4.173-3.509
	c-8.169,0.68-12.25,0.968-20.419,1.479l-0.024,0.377c-0.004,21.431-0.004,32.144-0.004,53.576c6.355-0.4,9.541-0.621,15.898-1.117
	c1.404-0.364,2.428-1.241,2.428-2.468c0.609-0.054,0.914-0.069,1.525-0.12c0.605-0.051,0.912-0.077,1.52-0.13
	c0,1.496,0,2.251,0,3.75c0,1.13,0,1.698,0,2.826c0,1.129,0,1.697,0,2.827c0,1.499,0,2.24,0,3.74
	c-0.607,0.049-0.914,0.078-1.52,0.131c-0.611,0.048-0.916,0.073-1.525,0.124c0-1.228-1.023-1.921-2.428-2.064
	c-6.357,0.501-9.543,0.719-15.898,1.116c0,25.555,0,38.326,0.004,63.879l0.02,0.363c8.17-0.508,12.255-0.797,20.424-1.478
	c2.41-0.629,4.173-2.126,4.173-4.223c1.04-0.091,1.563-0.146,2.604-0.239c1.043-0.095,1.557-0.145,2.605-0.242
	c0,2.561,0,3.841,0,6.401c0,1.93,0,2.899,0,4.827c-24.641,2.343-36.959,2.925-61.598,3.931c0-0.773,0-1.168,0-1.94
	c0-0.779,0-1.159,0-1.936C2274.485,297.488,2275.869,295.48,2275.869,293.07z M2503.429,194.003c0,0,5.951,8.932,21.385,8.932
	c2.484,0,5.213-0.231,8.205-0.77c21.564-3.87,31.16-25.513,25.959-54.461c-4.567-25.446-32.34-48.982-68.666-48.985
	c-1.202,0-2.404,0.025-3.623,0.078c0.185,1.055,0.327,2.208,0.346,3.564c0,23.017,0,34.531,0,57.548
	c-0.982,1.864-1.479,2.791-2.46,4.652c2.947,1.01,4.433,1.5,7.378,2.437c-1.965,3.125-2.951,4.682-4.918,7.775
	c0,24.664,0,49.331,0,73.999c0,3.938,2.203,5.011,3.785,5.011c0.451,0,0.85-0.086,1.133-0.218c0,1.334,0,2.009,0,3.343
	c0,0-5.414,3.172-13.165,14.426c-7.757,11.249-23.729,35.844-35.44,39.544c0-1.038,0-1.549,0-2.584c0,0,12.475-13.288,12.475-28.114
	c0-11.408,0-16.991,0-18.97l-0.12,0.035c-0.006-25.814-0.006-51.635-0.006-77.45c0.987-1.768,1.476-2.658,2.461-4.436
	c-2.952-1.252-4.425-1.895-7.378-3.212c1.967-2.874,2.953-4.316,4.917-7.224c0-21.474,0.006-32.212,0.006-53.69l-0.046,0.01
	c0-5.619-1.801-8.388-4.451-8.82c-32.896,11.428-62.011,31.328-103.029,38.696c-6.525,1.172-12.332,1.696-17.486,1.696
	c-34.751,0-40.078-23.778-39.702-33.031c0,0,10.487,8.236,37.687,8.236c8.65,0,18.986-0.833,31.217-3.027
	c50.682-9.099,71.752-24.602,108.648-31.223c6.784-1.219,15.121-1.962,24.281-1.962c40.65-0.001,97.521,14.646,107.002,67.454
	c9.766,54.407-30.043,68.007-45.934,68.007c-3.008,0-5.158-0.487-5.953-1.277c0,0-4.727,1.493-11.189,1.493
	C2525.776,221.485,2509.802,217.188,2503.429,194.003z M2429.29,146.847c0,42.023,0,84.044,0,126.067
	c0.13,1.769,0.943,3.022,2.5,3.022c0.313,0,0.657-0.051,1.031-0.158c0,0.78,0,1.155,0,1.937c0,0.771,0,1.163,0,1.941
	c-1.412,0.403-2.113,0.604-3.531,0.997c-4.75,1.323-7.13,1.948-11.879,3.134c-1.516,0.373-2.271,0.56-3.787,0.927
	c0-0.777,0-1.165,0-1.94c0-0.776,0-1.162,0-1.938c2.406-0.578,3.787-2.876,3.787-5.283c0-2.346,0-3.517,0-5.863
	c-3.033-7.115-9.762-18.589-23.674-28.019c-14.543-9.853-21.727-25.948-24.946-35.6c0,26.491,0,52.984,0,79.479
	c0.13,1.961,1.077,3.404,2.922,3.404c0.192,0,0.397-0.014,0.61-0.048c0,0.777,0,1.162,0,1.938s0,1.165,0,1.94
	c-1.416,0.22-2.117,0.324-3.532,0.53c-4.755,0.708-7.128,1.038-11.881,1.645c-1.511,0.197-2.268,0.293-3.78,0.474
	c0-0.771,0-1.163,0-1.935c0-0.78,0-1.159,0-1.938c2.405-0.295,3.78-2.42,3.78-4.829c0-41.698,0-83.395,0-125.088
	c0-2.23-1.182-3.911-3.271-3.911c-0.164,0-0.336,0.01-0.51,0.031c0-0.777,0-1.162,0-1.937c0-0.777,0-1.159,0-1.937
	c12.893-1.579,19.34-2.52,32.23-4.828c0,1.552,0,2.332,0,3.884c-4.076,5.367-1.143,18.914,14.037,33.881
	c8.713,8.585,14.586,17.754,18.014,24.068c0-24.17,0-36.255,0-60.426c0-2.072-1.023-3.548-2.848-3.548
	c-0.291,0-0.605,0.038-0.939,0.118c0-0.775,0-1.167,0-1.94c0-0.778,0-1.157,0-1.932c1.517-0.365,2.271-0.553,3.787-0.925
	c4.749-1.188,7.129-1.811,11.879-3.137c1.418-0.397,2.119-0.599,3.531-1.005c0,0.779,0,1.159,0,1.933c0,0.774,0,1.171,0,1.951
	C2430.587,142.623,2429.446,144.631,2429.29,146.847z M2092.183,178.377c-0.452,0-0.877,0.048-1.264,0.146
	c-23.209,5.955-20.535,49.719-20.199,69.186c0.588,33.973-0.338,60.501,11.028,60.501c0.491,0,1.009-0.048,1.548-0.149
	c1.896-0.354,3.509-1.225,4.879-2.556c0.666-0.935,0.99-1.398,1.656-2.329c0-26.229,0-39.339,0-65.564
	c0-2.152-1.102-3.754-3.055-3.754c-0.229,0-0.471,0.022-0.722,0.067c0-0.775,0.005-1.159,0.005-1.937c0-0.776,0-1.166,0-1.941
	c1.512-0.276,2.257-0.41,3.771-0.67c11.191-1.956,16.797-2.771,27.988-4.17c1.414-0.174,2.121-0.268,3.533-0.436
	c0,0.777,0,1.163,0,1.941c0,0.773,0,1.168,0,1.945c-2.234,0.266-3.381,2.094-3.533,4.285c0,19.941,0,29.907,0,49.848
	c0,11.772,1.732,11.87,1.732,11.87c-8.769,14.601-22.467,19.971-36.256,23.146c-3.492,0.801-6.744,1.177-9.781,1.177
	c-29.838,0-38.287-36.417-38.015-62.688c0.366-35.841,14.817-78.95,55.419-85.886c2.003-0.341,3.901-0.486,5.681-0.486
	c0.848,0,1.669,0.033,2.46,0.094c8.243,0.624,13.352,4.184,13.352,4.184c-2.968,6.135-4.454,9.201-7.418,15.371
	C2104.513,183.393,2096.834,178.377,2092.183,178.377z"/>
<path fill="#212121" d="M2220.891,96.396c0,0-5.301,5.656-13.495,13.865c0.059,0.221,0.048,0.43-0.107,0.582l-6.27,6.264
	c-0.099,0.099-0.221,0.127-0.357,0.127c-0.023,0-0.046,0-0.07-0.003l-3.049,3.049l18.301,18.303c0.371,0.368,0.371,0.962,0,1.323
	c-0.409,0.41-0.409,1.084,0,1.493c0.207,0.206,0.478,0.308,0.747,0.308c0.271,0,0.54-0.102,0.745-0.308
	c0.41-0.409,0.41-1.083,0-1.493l-0.348-0.228c-0.48-0.196-0.712-0.741-0.518-1.218c0.15-0.367,0.502-0.59,0.873-0.59
	c0.115,0,0.234,0.022,0.348,0.067c0.365,0.146,0.691,0.365,0.971,0.645c1.14,1.141,1.14,3.002,0,4.142
	c-0.569,0.571-1.32,0.857-2.07,0.857s-1.5-0.286-2.071-0.857c-0.908-0.909-1.096-2.275-0.553-3.371l-17.749-17.747l-17.749,17.747
	c0.538,1.096,0.356,2.462-0.554,3.371c-0.57,0.571-1.32,0.857-2.07,0.857s-1.501-0.286-2.07-0.857c-1.143-1.14-1.143-3.001,0-4.142
	c0.276-0.279,0.604-0.498,0.97-0.645c0.113-0.045,0.231-0.067,0.347-0.067c0.37,0,0.724,0.223,0.872,0.59
	c0.194,0.477-0.036,1.021-0.517,1.218c-0.131,0.054-0.245,0.131-0.35,0.228c-0.408,0.41-0.408,1.084,0,1.493
	c0.206,0.206,0.476,0.308,0.746,0.308c0.27,0,0.54-0.102,0.748-0.308c0.408-0.409,0.408-1.083,0-1.493
	c-0.365-0.361-0.365-0.955,0-1.323l18.299-18.303l-3.049-3.049c-0.023,0.003-0.047,0.003-0.071,0.003
	c-0.136,0-0.259-0.026-0.356-0.127l-6.266-6.264c-0.151-0.152-0.168-0.361-0.104-0.585c-8.198-8.206-13.5-13.862-13.5-13.862
	s2.512,2.356,6.604,6.342c-3.982-4.09-6.341-6.602-6.341-6.602s2.512,2.354,6.609,6.345c-3.986-4.095-6.346-6.608-6.346-6.608
	s2.511,2.353,6.6,6.335c-3.98-4.09-6.338-6.6-6.338-6.6s5.66,5.299,13.861,13.498c0.08-0.022,0.156-0.035,0.229-0.035
	c0.135,0,0.258,0.042,0.354,0.14l6.27,6.264c0.112,0.121,0.134,0.271,0.12,0.432l3.049,3.049l3.05-3.049
	c-0.014-0.161,0.007-0.311,0.12-0.432l6.27-6.264c0.1-0.098,0.223-0.14,0.357-0.14c0.071,0,0.147,0.013,0.225,0.035
	c8.206-8.199,13.862-13.498,13.862-13.498s-2.354,2.506-6.327,6.591c4.084-3.977,6.59-6.326,6.59-6.326s-2.346,2.5-6.318,6.577
	c4.078-3.966,6.582-6.313,6.582-6.313s-2.344,2.499-6.314,6.576C2218.39,98.741,2220.891,96.396,2220.891,96.396z"/>
</svg>
